<?xml version="1.0" encoding="UTF-8"?>
<svg version="1.1" xmlns="http://www.w3.org/2000/svg" width="225" height="225">
<path d="M0 0 C0.82999512 0.00757324 1.65999023 0.01514648 2.51513672 0.02294922 C15.46583144 0.36941381 25.4868115 5.87013706 34.375 15.125 C42.54745655 24.6238762 46.25722247 36.00379144 45.625 48.4375 C45.31767379 49.7770669 44.99057817 51.11264473 44.625 52.4375 C45.24246094 52.58445313 45.85992187 52.73140625 46.49609375 52.8828125 C57.82064356 55.88200834 65.65446613 62.04419805 72.625 71.4375 C79.02085714 82.4863043 81.21863102 93.8454051 78.5 106.3125 C76.33825675 114.33451404 72.44739047 122.40716701 66.625 128.4375 C65.965 128.4375 65.305 128.4375 64.625 128.4375 C64.295 129.4275 63.965 130.4175 63.625 131.4375 C52.7764001 139.41974742 41.01506401 142.88301827 27.625 141.4375 C22.85808808 140.44119623 18.23914016 138.98707631 13.625 137.4375 C14.25148438 138.53449219 14.87796875 139.63148438 15.5234375 140.76171875 C16.34912351 142.21605207 17.17463517 143.67048438 18 145.125 C18.4125 145.84623047 18.825 146.56746094 19.25 147.31054688 C19.64960938 148.01630859 20.04921875 148.72207031 20.4609375 149.44921875 C20.82751465 150.09334717 21.1940918 150.73747559 21.57177734 151.40112305 C22.75662978 153.69200255 23.70048231 156.03119605 24.625 158.4375 C16.44091287 159.34569369 8.35534278 159.59027394 0.125 159.5625 C-1.02097656 159.56636719 -2.16695313 159.57023438 -3.34765625 159.57421875 C-10.41166786 159.56618233 -17.35374217 159.21665374 -24.375 158.4375 C-22.93176531 153.69960835 -21.00273267 149.44891849 -18.75 145.0625 C-18.42515625 144.42183594 -18.1003125 143.78117188 -17.765625 143.12109375 C-16.97242593 141.55802499 -16.17422969 139.99749378 -15.375 138.4375 C-16.07882813 138.6540625 -16.78265625 138.870625 -17.5078125 139.09375 C-31.02879946 142.90645651 -43.36206055 142.66781048 -55.9375 136.25 C-68.68568841 128.73646594 -74.70444998 119.31849086 -78.96875 105.515625 C-81.22308535 93.98383266 -79.14485868 82.63041266 -73.125 72.6875 C-66.59899586 63.10966929 -58.4422219 56.30195617 -47.375 52.4375 C-46.385 52.4375 -45.395 52.4375 -44.375 52.4375 C-44.705 51.7775 -45.035 51.1175 -45.375 50.4375 C-46.6456476 39.18914422 -43.75665121 27.49461759 -36.99609375 18.390625 C-27.36090867 6.78196827 -15.29457879 -0.19716768 0 0 Z M-0.375 48.4375 C-0.705 49.0975 -1.035 49.7575 -1.375 50.4375 C-0.385 50.7675 0.605 51.0975 1.625 51.4375 C1.295 50.4475 0.965 49.4575 0.625 48.4375 C0.295 48.4375 -0.035 48.4375 -0.375 48.4375 Z M-2.375 50.4375 C-1.375 52.4375 -1.375 52.4375 -1.375 52.4375 Z M-3.375 52.4375 C-7.61882771 58.77975175 -9.86988241 64.69703158 -9.375 72.4375 C-8.715 73.4275 -8.055 74.4175 -7.375 75.4375 C-6.715 75.4375 -6.055 75.4375 -5.375 75.4375 C-5.705 71.8075 -6.035 68.1775 -6.375 64.4375 C-5.715 64.1075 -5.055 63.7775 -4.375 63.4375 C-3.96867909 61.45104224 -3.64550453 59.44696222 -3.375 57.4375 C-3.04864302 55.76945323 -2.71774406 54.10225686 -2.375 52.4375 C-2.705 52.4375 -3.035 52.4375 -3.375 52.4375 Z M-22.375 56.4375 C-22.045 58.4175 -21.715 60.3975 -21.375 62.4375 C-20.715 61.1175 -20.055 59.7975 -19.375 58.4375 C-20.365 57.7775 -21.355 57.1175 -22.375 56.4375 Z M20.625 57.4375 C21.625 61.4375 21.625 61.4375 21.625 61.4375 Z M5.625 59.4375 C6.625 61.4375 6.625 61.4375 6.625 61.4375 Z M6.625 61.4375 C7.625 65.4375 7.625 65.4375 7.625 65.4375 Z M19.625 62.4375 C18.635 65.7375 17.645 69.0375 16.625 72.4375 C17.285 72.1075 17.945 71.7775 18.625 71.4375 C19.31229254 69.31903715 19.31229254 69.31903715 19.75 66.875 C19.91757813 66.04871094 20.08515625 65.22242187 20.2578125 64.37109375 C20.37898438 63.73300781 20.50015625 63.09492187 20.625 62.4375 C20.295 62.4375 19.965 62.4375 19.625 62.4375 Z M-18.375 69.4375 C-18.045 70.7575 -17.715 72.0775 -17.375 73.4375 C-17.045 72.7775 -16.715 72.1175 -16.375 71.4375 C-17.035 70.7775 -17.695 70.1175 -18.375 69.4375 Z M-22.375 73.4375 C-22.705 74.0975 -23.035 74.7575 -23.375 75.4375 C-22.715 75.4375 -22.055 75.4375 -21.375 75.4375 C-21.705 74.7775 -22.035 74.1175 -22.375 73.4375 Z M-5.375 75.4375 C-5.705 76.0975 -6.035 76.7575 -6.375 77.4375 C-5.715 77.4375 -5.055 77.4375 -4.375 77.4375 C-4.375 78.0975 -4.375 78.7575 -4.375 79.4375 C-0.1112719 81.79660353 -0.1112719 81.79660353 4.625 82.4375 C6.12910104 92.13260909 5.19739525 99.21158321 -0.375 107.4375 C-1.695 105.1275 -3.015 102.8175 -4.375 100.4375 C-4.705 101.0975 -5.035 101.7575 -5.375 102.4375 C-4.38082992 104.69074159 -4.38082992 104.69074159 -2.9375 107.0625 C-2.46441406 107.87976563 -1.99132812 108.69703125 -1.50390625 109.5390625 C-1.13136719 110.16554687 -0.75882812 110.79203125 -0.375 111.4375 C3.07349081 108.41004586 4.48305724 104.7321811 6.34375 100.6171875 C7.625 98.4375 7.625 98.4375 10.625 97.4375 C9.965 96.7775 9.305 96.1175 8.625 95.4375 C8.35508094 92.74910615 8.53762643 90.14608064 8.625 87.4375 C9.56472656 87.47230469 9.56472656 87.47230469 10.5234375 87.5078125 C11.74933594 87.53488281 11.74933594 87.53488281 13 87.5625 C14.21816406 87.59730469 14.21816406 87.59730469 15.4609375 87.6328125 C17.83842243 87.65120051 17.83842243 87.65120051 19.625 85.4375 C18.305 85.1075 16.985 84.7775 15.625 84.4375 C15.625 85.0975 15.625 85.7575 15.625 86.4375 C13.315 86.4375 11.005 86.4375 8.625 86.4375 C8.57214844 85.68082031 8.51929687 84.92414063 8.46484375 84.14453125 C7.85521994 81.2365796 7.85521994 81.2365796 5.19140625 79.63671875 C4.20011719 79.13785156 3.20882812 78.63898438 2.1875 78.125 C1.19878906 77.61324219 0.21007812 77.10148437 -0.80859375 76.57421875 C-3.21196258 75.30250799 -3.21196258 75.30250799 -5.375 75.4375 Z M-26.375 75.4375 C-28.91173288 76.7928326 -28.91173288 76.7928326 -31.375 78.4375 C-31.375 79.0975 -31.375 79.7575 -31.375 80.4375 C-29.395 81.0975 -27.415 81.7575 -25.375 82.4375 C-25.705 81.7775 -26.035 81.1175 -26.375 80.4375 C-27.035 80.4375 -27.695 80.4375 -28.375 80.4375 C-27.385 79.4475 -26.395 78.4575 -25.375 77.4375 C-25.705 76.7775 -26.035 76.1175 -26.375 75.4375 Z M26.625 76.4375 C26.625 77.0975 26.625 77.7575 26.625 78.4375 C27.285 78.4375 27.945 78.4375 28.625 78.4375 C28.625 79.0975 28.625 79.7575 28.625 80.4375 C27.696875 80.705625 26.76875 80.97375 25.8125 81.25 C22.86259634 82.34898371 21.56884814 83.06168561 19.625 85.4375 C23.85929756 84.12688409 27.69907404 82.49393741 31.625 80.4375 C31.625 79.7775 31.625 79.1175 31.625 78.4375 C29.15 77.4475 29.15 77.4475 26.625 76.4375 Z M-16.375 84.4375 C-17.365 85.0975 -18.355 85.7575 -19.375 86.4375 C-19.375 87.7575 -19.375 89.0775 -19.375 90.4375 C-18.715 90.4375 -18.055 90.4375 -17.375 90.4375 C-17.045 89.4475 -16.715 88.4575 -16.375 87.4375 C-13.735 87.4375 -11.095 87.4375 -8.375 87.4375 C-8.045 88.4275 -7.715 89.4175 -7.375 90.4375 C-7.375 89.1175 -7.375 87.7975 -7.375 86.4375 C-10.015 86.4375 -12.655 86.4375 -15.375 86.4375 C-15.705 85.7775 -16.035 85.1175 -16.375 84.4375 Z M17.625 87.4375 C18.625 90.4375 18.625 90.4375 18.625 90.4375 Z M18.625 90.4375 C19.625 93.4375 19.625 93.4375 19.625 93.4375 Z M-19.375 91.4375 C-18.375 93.4375 -18.375 93.4375 -18.375 93.4375 Z M-20.375 94.4375 C-19.375 96.4375 -19.375 96.4375 -19.375 96.4375 Z M-7.375 95.4375 C-8.035 96.0975 -8.695 96.7575 -9.375 97.4375 C-8.385 97.7675 -7.395 98.0975 -6.375 98.4375 C-6.045 97.4475 -5.715 96.4575 -5.375 95.4375 C-6.035 95.4375 -6.695 95.4375 -7.375 95.4375 Z M-21.375 96.4375 C-21.705 98.0875 -22.035 99.7375 -22.375 101.4375 C-21.385 101.1075 -20.395 100.7775 -19.375 100.4375 C-20.035 99.1175 -20.695 97.7975 -21.375 96.4375 Z M-18.375 99.4375 C-14.60875329 100.69291557 -13.00311066 99.80811958 -9.375 98.4375 C-12.99444899 97.09696334 -14.94867167 97.81951162 -18.375 99.4375 Z M-6.375 98.4375 C-5.375 100.4375 -5.375 100.4375 -5.375 100.4375 Z M20.625 99.4375 C21.625 101.4375 21.625 101.4375 21.625 101.4375 Z " fill="#232748" transform="translate(114.375,30.5625)"/>
<path d="M0 0 C2 3 2 3 2 5 C3.98 5 5.96 5 8 5 C7.67 6.65 7.34 8.3 7 10 C8.32 10 9.64 10 11 10 C11.268125 10.598125 11.53625 11.19625 11.8125 11.8125 C12.8893979 14.04327908 12.8893979 14.04327908 14.625 15.625 C15.07875 16.07875 15.5325 16.5325 16 17 C16 17.66 16 18.32 16 19 C16.93972656 19.23783203 16.93972656 19.23783203 17.8984375 19.48046875 C24.58802092 21.39027096 24.58802092 21.39027096 26.5625 24.3125 C28.0001438 33.14374048 25.16728399 40.2607583 21 48 C17.23166274 44.79691333 15.18209706 40.36419411 13 36 C9.7 37.32 6.4 38.64 3 40 C3 40.99 3 41.98 3 43 C2.01 43.66 1.02 44.32 0 45 C0 44.34 0 43.68 0 43 C-0.99 42.67 -1.98 42.34 -3 42 C-2.67 40.35 -2.34 38.7 -2 37 C-2.66 37 -3.32 37 -4 37 C-2.79618552 34.50638429 -1.54571278 32.31856917 0 30 C-1.98 30.99 -1.98 30.99 -4 32 C-4.33 29.03 -4.66 26.06 -5 23 C-2.125 23.6875 -2.125 23.6875 1 25 C2.375 27.625 2.375 27.625 3 30 C3.33 28.68 3.66 27.36 4 26 C6.05078125 26.29296875 8.1015625 26.5859375 10.15234375 26.87890625 C10.76207031 26.91886719 11.37179688 26.95882812 12 27 C12.33 26.67 12.66 26.34 13 26 C10.36 26 7.72 26 5 26 C3.87179487 20.48433048 3.87179487 20.48433048 4.5625 17.875 C5.18112308 15.22375824 4.39479205 14.32465342 3 12 C2.649375 11.46117188 2.29875 10.92234375 1.9375 10.3671875 C-1.04904446 5.57627243 -1.04904446 5.57627243 -0.75 2.0625 C-0.5025 1.381875 -0.255 0.70125 0 0 Z M1 31 C2 33 2 33 2 33 Z M0 34 C1 36 1 36 1 36 Z M-1 36 C-1.33 37.65 -1.66 39.3 -2 41 C-1.01 40.67 -0.02 40.34 1 40 C0.34 38.68 -0.32 37.36 -1 36 Z " fill="#C9CCD7" transform="translate(94,91)"/>
<path d="M0 0 C-0.04125 1.0725 -0.0825 2.145 -0.125 3.25 C0.01243024 7.48469898 0.01243024 7.48469898 2 11 C4.03317007 12.73425773 4.03317007 12.73425773 6 14 C5.01 14 4.02 14 3 14 C3 16.64 3 19.28 3 22 C3.6290625 22.02578125 4.258125 22.0515625 4.90625 22.078125 C11.23015102 22.49717868 15.50558326 23.8457978 21 27 C21 27.99 21 28.98 21 30 C21.66 30 22.32 30 23 30 C23 30.66 23 31.32 23 32 C21.58671871 32.81837442 20.16921654 33.62946219 18.75 34.4375 C17.56664062 35.11619141 17.56664062 35.11619141 16.359375 35.80859375 C11.84977832 38.08579075 8.03273878 38.09678344 3 38 C2.67 36.35 2.34 34.7 2 33 C1.15308594 32.81824219 1.15308594 32.81824219 0.2890625 32.6328125 C-3.87657299 31.48122044 -7.55978998 29.61536434 -11 27 C-12.78271934 23.30250804 -13.43560199 21.37382167 -12.1875 17.4375 C-11.795625 16.633125 -11.40375 15.82875 -11 15 C-10.7834375 13.576875 -10.7834375 13.576875 -10.5625 12.125 C-9.87753217 8.31962315 -8.88726274 5.38405733 -7 2 C-2.65217391 0 -2.65217391 0 0 0 Z M0 11 C1 13 1 13 1 13 Z M1 13 C2 17 2 17 2 17 Z " fill="#383C50" transform="translate(120,79)"/>
<path d="M0 0 C2.475 0.99 2.475 0.99 5 2 C4.01 2.33 3.02 2.66 2 3 C2 5.64 2 8.28 2 11 C2.6290625 11.02578125 3.258125 11.0515625 3.90625 11.078125 C10.23015102 11.49717868 14.50558326 12.8457978 20 16 C20 16.99 20 17.98 20 19 C20.66 19 21.32 19 22 19 C22 19.66 22 20.32 22 21 C20.58671871 21.81837442 19.16921654 22.62946219 17.75 23.4375 C16.56664062 24.11619141 16.56664062 24.11619141 15.359375 24.80859375 C10.84977832 27.08579075 7.03273878 27.09678344 2 27 C1.20046862 23.71303767 0.90341064 22.28976808 2 19 C1.01 18.67 0.02 18.34 -1 18 C-1 16.68 -1 15.36 -1 14 C-2.32 14 -3.64 14 -5 14 C-4.67 13.34 -4.34 12.68 -4 12 C-2.68 12 -1.36 12 0 12 C0 8.04 0 4.08 0 0 Z " fill="#C5C9D0" transform="translate(121,90)"/>
<path d="M0 0 C2.875 0.6875 2.875 0.6875 6 2 C7.375 4.625 7.375 4.625 8 7 C8.33 5.68 8.66 4.36 9 3 C11.64 3.33 14.28 3.66 17 4 C17 6.97 17 9.94 17 13 C14.03 14.32 11.06 15.64 8 17 C8 17.99 8 18.98 8 20 C7.01 20.66 6.02 21.32 5 22 C5 21.34 5 20.68 5 20 C4.01 19.67 3.02 19.34 2 19 C2.33 17.35 2.66 15.7 3 14 C2.34 14 1.68 14 1 14 C2.20381448 11.50638429 3.45428722 9.31856917 5 7 C3.02 7.99 3.02 7.99 1 9 C0.67 6.03 0.34 3.06 0 0 Z M6 8 C7 10 7 10 7 10 Z M5 11 C6 13 6 13 6 13 Z M4 13 C3.67 14.65 3.34 16.3 3 18 C3.99 17.67 4.98 17.34 6 17 C5.34 15.68 4.68 14.36 4 13 Z " fill="#404557" transform="translate(89,114)"/>
<path d="M0 0 C2 3 2 3 2 5 C3.98 5 5.96 5 8 5 C7.67 6.65 7.34 8.3 7 10 C8.32 10 9.64 10 11 10 C11.33 12.31 11.66 14.62 12 17 C11.01 17.66 10.02 18.32 9 19 C10.32 20.32 11.64 21.64 13 23 C12.67 23.99 12.34 24.98 12 26 C9.69 26 7.38 26 5 26 C3.87179487 20.48433048 3.87179487 20.48433048 4.5625 17.875 C5.18112308 15.22375824 4.39479205 14.32465342 3 12 C2.649375 11.46117188 2.29875 10.92234375 1.9375 10.3671875 C-1.04904446 5.57627243 -1.04904446 5.57627243 -0.75 2.0625 C-0.5025 1.381875 -0.255 0.70125 0 0 Z " fill="#B1B7C0" transform="translate(94,91)"/>
<path d="M0 0 C2.97 0 5.94 0 9 0 C9.66 1.32 10.32 2.64 11 4 C11.99 5.485 11.99 5.485 13 7 C13.53916146 9.6602023 13.73370098 12.29262663 14 15 C12.58194169 14.71517632 11.16559621 14.42181856 9.75 14.125 C8.96109375 13.96257812 8.1721875 13.80015625 7.359375 13.6328125 C3.20502454 12.51856618 1.43115108 11.64672662 -1 8 C-0.96856707 5.26009592 -0.44521663 2.71582146 0 0 Z M12 12 C13 14 13 14 13 14 Z " fill="#54586B" transform="translate(123,118)"/>
<path d="M0 0 C1.9375 0.8125 1.9375 0.8125 4.9375 2.8125 C4.50978451 4.23215142 4.06984457 5.6481224 3.625 7.0625 C3.38136719 7.85140625 3.13773438 8.6403125 2.88671875 9.453125 C1.88641677 11.93947232 0.62892391 13.7467834 -1.0625 15.8125 C-2.09570481 14.21627344 -3.11372429 12.61020894 -4.125 11 C-4.69347656 10.10667969 -5.26195313 9.21335938 -5.84765625 8.29296875 C-7.0625 5.8125 -7.0625 5.8125 -6.0625 2.8125 C-2.87852374 -0.26168398 -2.87852374 -0.26168398 0 0 Z " fill="#36384E" transform="translate(115.0625,123.1875)"/>
<path d="M0 0 C4.34072171 0.37206186 8.07415115 2.22951915 12 4 C12 4.66 12 5.32 12 6 C10.56705502 6.84114171 9.12845595 7.67265687 7.6875 8.5 C6.88699219 8.9640625 6.08648437 9.428125 5.26171875 9.90625 C3 11 3 11 0 11 C-2.1875 8.5 -2.1875 8.5 -4 6 C-2.84826645 3.53199953 -1.95216435 1.95216435 0 0 Z " fill="#1E2338" transform="translate(131,105)"/>
<path d="M0 0 C2.475 0.99 2.475 0.99 5 2 C4.01 2.33 3.02 2.66 2 3 C2 5.64 2 8.28 2 11 C2.6290625 11.02578125 3.258125 11.0515625 3.90625 11.078125 C10.23015102 11.49717868 14.50558326 12.8457978 20 16 C19.67 16.99 19.34 17.98 19 19 C18.3709375 18.65066406 17.741875 18.30132812 17.09375 17.94140625 C11.59021685 15.01558215 7.23116607 13.34617589 1 13 C1 14.65 1 16.3 1 18 C1.66 18 2.32 18 3 18 C2.67 19.32 2.34 20.64 2 22 C2 21.01 2 20.02 2 19 C1.01 18.67 0.02 18.34 -1 18 C-1 16.68 -1 15.36 -1 14 C-2.32 14 -3.64 14 -5 14 C-4.67 13.34 -4.34 12.68 -4 12 C-2.68 12 -1.36 12 0 12 C0 8.04 0 4.08 0 0 Z " fill="#C9D1DD" transform="translate(121,90)"/>
<path d="M0 0 C4.87362847 0.45336079 7.39042389 1.7089159 11 5 C10.67 6.65 10.34 8.3 10 10 C8.68 10.33 7.36 10.66 6 11 C3 6.25 3 6.25 3 4 C1.68 3.67 0.36 3.34 -1 3 C-0.67 2.01 -0.34 1.02 0 0 Z " fill="#242546" transform="translate(133,36)"/>
<path d="M0 0 C2.48776943 3.45703024 4.10622633 6.72528401 3.75 11 C3.5025 11.66 3.255 12.32 3 13 C2.34 13 1.68 13 1 13 C0.67 13.66 0.34 14.32 0 15 C0 13.68 0 12.36 0 11 C-0.66 11 -1.32 11 -2 11 C-3 8 -3 8 -3 5 C-3.99 4.34 -4.98 3.68 -6 3 C-5.34 3 -4.68 3 -4 3 C-4 2.34 -4 1.68 -4 1 C-4.66 0.67 -5.32 0.34 -6 0 C-3 -1 -3 -1 0 0 Z " fill="#30344D" transform="translate(108,129)"/>
<path d="M0 0 C-0.66 0 -1.32 0 -2 0 C-2 0.66 -2 1.32 -2 2 C-0.68 1.67 0.64 1.34 2 1 C3.09658936 4.28976808 2.79953138 5.71303767 2 9 C-0.64 8.67 -3.28 8.34 -6 8 C-6 5.36 -6 2.72 -6 0 C-3 -1 -3 -1 0 0 Z " fill="#181C31" transform="translate(129,93)"/>
<path d="M0 0 C0.66 0.66 1.32 1.32 2 2 C4.58354218 2.16687448 4.58354218 2.16687448 7 2 C7 3.65 7 5.3 7 7 C7.66 7.33 8.32 7.66 9 8 C8.67 8.99 8.34 9.98 8 11 C4.83548038 10.36567062 2.48312221 9.26817072 -0.25 7.5625 C-0.95640625 7.13066406 -1.6628125 6.69882813 -2.390625 6.25390625 C-2.92171875 5.84011719 -3.4528125 5.42632812 -4 5 C-4 4.34 -4 3.68 -4 3 C-3.01 3 -2.02 3 -1 3 C-0.67 2.01 -0.34 1.02 0 0 Z " fill="#303549" transform="translate(114,101)"/>
<path d="M0 0 C0.86625 0.391875 1.7325 0.78375 2.625 1.1875 C2.295 1.8475 1.965 2.5075 1.625 3.1875 C0.965 2.8575 0.305 2.5275 -0.375 2.1875 C-0.5296875 3.05375 -0.5296875 3.05375 -0.6875 3.9375 C-1.48396465 6.54411158 -2.56565277 8.1610311 -4.375 10.1875 C-5.035 10.1875 -5.695 10.1875 -6.375 10.1875 C-7.365 7.5475 -8.355 4.9075 -9.375 2.1875 C-4.20576923 -1.0125 -4.20576923 -1.0125 0 0 Z " fill="#31364A" transform="translate(141.375,114.8125)"/>
<path d="M0 0 C1.45903258 0.30921884 2.91720722 0.62248799 4.375 0.9375 C5.18710938 1.11152344 5.99921875 1.28554687 6.8359375 1.46484375 C9 2 9 2 11 3 C11 5.64 11 8.28 11 11 C9.68 11 8.36 11 7 11 C6.67 9.68 6.34 8.36 6 7 C5.38125 6.95875 4.7625 6.9175 4.125 6.875 C3.42375 6.58625 2.7225 6.2975 2 6 C0.75 2.9375 0.75 2.9375 0 0 Z " fill="#202338" transform="translate(94,90)"/>
<path d="M0 0 C0.99 0 1.98 0 3 0 C2.3767176 2.92163623 1.4290911 5.25850233 0 7.875 C-1.7379914 11.23763553 -2.61984455 14.19844554 -3 18 C-3.33 18 -3.66 18 -4 18 C-4 16.35 -4 14.7 -4 13 C-4.66 12.67 -5.32 12.34 -6 12 C-5.33333333 9.33333333 -4.66666667 6.66666667 -4 4 C-4.66 3.67 -5.32 3.34 -6 3 C-5.34 2.34 -4.68 1.68 -4 1 C-4 1.66 -4 2.32 -4 3 C-3.01 3 -2.02 3 -1 3 C-0.67 2.01 -0.34 1.02 0 0 Z " fill="#4D4E60" transform="translate(109,80)"/>
<path d="M0 0 C-0.25561323 2.3431213 -0.59270772 4.67843403 -1 7 C-1.99 7.495 -1.99 7.495 -3 8 C-3.72693904 9.97888961 -4.39816251 11.97954558 -5 14 C-5.68707555 11.50935112 -6 9.62113708 -6 7 C-7.32 7.33 -8.64 7.66 -10 8 C-10 7.01 -10 6.02 -10 5 C-10.99 4.34 -11.98 3.68 -13 3 C-11.39743892 2.49487756 -9.79288208 1.99608373 -8.1875 1.5 C-7.29417969 1.2215625 -6.40085938 0.943125 -5.48046875 0.65625 C-3 0 -3 0 0 0 Z " fill="#818594" transform="translate(137,87)"/>
<path d="M0 0 C3 1.6875 3 1.6875 6 4 C6.375 6.75 6.375 6.75 6 9 C5.34 8.67 4.68 8.34 4 8 C3.67 8.66 3.34 9.32 3 10 C2.01 10 1.02 10 0 10 C-0.33 10.66 -0.66 11.32 -1 12 C-3.51969981 4.29268293 -3.51969981 4.29268293 -2 1 C-1.34 0.67 -0.68 0.34 0 0 Z " fill="#B9BCC5" transform="translate(110,94)"/>
<path d="M0 0 C2.875 0.625 2.875 0.625 6 2 C7.375 5.125 7.375 5.125 8 8 C7.34 8 6.68 8 6 8 C6.33 8.99 6.66 9.98 7 11 C6.34 11 5.68 11 5 11 C4.67 12.98 4.34 14.96 4 17 C3.67 16.01 3.34 15.02 3 14 C2.34 14 1.68 14 1 14 C2.20381448 11.50638429 3.45428722 9.31856917 5 7 C3.02 7.99 3.02 7.99 1 9 C0.67 6.03 0.34 3.06 0 0 Z " fill="#43445C" transform="translate(89,114)"/>
<path d="M0 0 C0.33 0.99 0.66 1.98 1 3 C1.66 3.33 2.32 3.66 3 4 C1.13032395 4.98929461 -0.74601378 5.96600469 -2.625 6.9375 C-4.19121094 7.75541016 -4.19121094 7.75541016 -5.7890625 8.58984375 C-8.92416918 9.96669717 -11.61454632 10.59842216 -15 11 C-14.67 10.34 -14.34 9.68 -14 9 C-13.01 9 -12.02 9 -11 9 C-11 8.01 -11 7.02 -11 6 C-10.28972656 5.73445312 -9.57945312 5.46890625 -8.84765625 5.1953125 C-7.92855469 4.84210938 -7.00945312 4.48890625 -6.0625 4.125 C-5.14597656 3.77695313 -4.22945312 3.42890625 -3.28515625 3.0703125 C-0.85058944 2.2180914 -0.85058944 2.2180914 0 0 Z " fill="#3C4053" transform="translate(172,160)"/>
<path d="M0 0 C4.99911924 0.47610659 7.97832683 2.03162219 12 5 C11.01 5.495 11.01 5.495 10 6 C8.86649466 8.01669827 8.86649466 8.01669827 8 10 C7.67 9.01 7.34 8.02 7 7 C5.35 7 3.7 7 2 7 C2 5.68 2 4.36 2 3 C1.34 2.67 0.68 2.34 0 2 C0 1.34 0 0.68 0 0 Z " fill="#2B2F3E" transform="translate(106,109)"/>
<path d="M0 0 C3.63 1.32 7.26 2.64 11 4 C8.96547367 4.50863158 6.92906025 5.01460524 4.875 5.4375 C2.77917672 5.90475673 2.77917672 5.90475673 1 8 C0.67 7.67 0.34 7.34 0 7 C-0.99 8.32 -1.98 9.64 -3 11 C-3.75 9.4375 -3.75 9.4375 -4 7 C-2.86915563 4.49713591 -1.47860484 2.32992278 0 0 Z " fill="#313549" transform="translate(122,128)"/>
<path d="M0 0 C4.26652402 3.7924658 6.89480975 7.67233976 9 13 C9 13.66 9 14.32 9 15 C8.01 14.67 7.02 14.34 6 14 C5.71125 13.195625 5.4225 12.39125 5.125 11.5625 C4.24500426 8.75531022 4.24500426 8.75531022 1.4375 7.9375 C0.633125 7.628125 -0.17125 7.31875 -1 7 C-1.8125 4.875 -1.8125 4.875 -2 3 C-1.34 3 -0.68 3 0 3 C0 2.01 0 1.02 0 0 Z " fill="#494A5C" transform="translate(148,46)"/>
<path d="M0 0 C1.485 0.99 1.485 0.99 3 2 C3 3.32 3 4.64 3 6 C4.32 6 5.64 6 7 6 C7.33 5.34 7.66 4.68 8 4 C9 7 9 7 7.5625 10.1875 C6.7890625 11.5796875 6.7890625 11.5796875 6 13 C2.70032335 10.19527484 0.91540896 6.83081791 -1 3 C-0.67 2.01 -0.34 1.02 0 0 Z " fill="#383C4F" transform="translate(109,126)"/>
<path d="M0 0 C2 3 2 3 2 5 C3.98 5 5.96 5 8 5 C7.67 6.65 7.34 8.3 7 10 C8.32 10.33 9.64 10.66 11 11 C5.80936455 11.51906355 5.80936455 11.51906355 3 11 C0.4375 8.3125 0.4375 8.3125 -1 5 C-0.75 2.125 -0.75 2.125 0 0 Z " fill="#707586" transform="translate(94,91)"/>
<path d="M0 0 C0 2.97 0 5.94 0 9 C-2.475 8.01 -2.475 8.01 -5 7 C-5 6.34 -5 5.68 -5 5 C-5.66 5 -6.32 5 -7 5 C-7 3.68 -7 2.36 -7 1 C-4 0 -4 0 0 0 Z " fill="#1D2136" transform="translate(131,118)"/>
<path d="M0 0 C0.66 0.66 1.32 1.32 2 2 C1.625 4.625 1.625 4.625 1 7 C2.32 6.67 3.64 6.34 5 6 C5.99 7.65 6.98 9.3 8 11 C3.24518354 10.42365861 0.02951788 8.44931479 -4 6 C-3.67 5.01 -3.34 4.02 -3 3 C-2.34 3 -1.68 3 -1 3 C-0.67 2.01 -0.34 1.02 0 0 Z " fill="#666B75" transform="translate(90,105)"/>
<path d="M0 0 C0.598125 0.226875 1.19625 0.45375 1.8125 0.6875 C1.1525 0.6875 0.4925 0.6875 -0.1875 0.6875 C-0.1875 1.3475 -0.1875 2.0075 -0.1875 2.6875 C0.8025 3.0175 1.7925 3.3475 2.8125 3.6875 C2.8125 5.0075 2.8125 6.3275 2.8125 7.6875 C2.173125 7.501875 1.53375 7.31625 0.875 7.125 C-0.1459375 6.9084375 -0.1459375 6.9084375 -1.1875 6.6875 C-1.5175 7.0175 -1.8475 7.3475 -2.1875 7.6875 C-3.1775 7.6875 -4.1675 7.6875 -5.1875 7.6875 C-5.41803497 4.84423536 -5.54653101 3.22604651 -3.9375 0.8125 C-2.1875 -0.3125 -2.1875 -0.3125 0 0 Z " fill="#1C2039" transform="translate(103.1875,119.3125)"/>
<path d="M0 0 C2.56687367 3.8503105 1.83288724 5.58569763 1 10 C0.360625 10.12375 -0.27875 10.2475 -0.9375 10.375 C-1.618125 10.58125 -2.29875 10.7875 -3 11 C-3.33 11.66 -3.66 12.32 -4 13 C-4.66 13 -5.32 13 -6 13 C-4.58707905 8.1725201 -2.57025846 4.2837641 0 0 Z " fill="#2E324A" transform="translate(97,174)"/>
<path d="M0 0 C0.66 0 1.32 0 2 0 C3.03046722 1.78614318 4.04913236 3.57910018 5.0625 5.375 C5.63097656 6.37273437 6.19945312 7.37046875 6.78515625 8.3984375 C7.38650391 9.68621094 7.38650391 9.68621094 8 11 C7.67 11.66 7.34 12.32 7 13 C6.34 13 5.68 13 5 13 C4.62875 11.88625 4.62875 11.88625 4.25 10.75 C3.15896235 7.88921023 3.15896235 7.88921023 0.8125 5.9375 C0.214375 5.298125 -0.38375 4.65875 -1 4 C-0.75 1.75 -0.75 1.75 0 0 Z " fill="#46485D" transform="translate(128,171)"/>
<path d="M0 0 C-0.020625 1.0725 -0.04125 2.145 -0.0625 3.25 C-0.0142016 6.14790424 0.13155885 8.28612141 1 11 C-0.98 11.99 -0.98 11.99 -3 13 C-3.144375 11.906875 -3.28875 10.81375 -3.4375 9.6875 C-3.88288104 6.06877013 -3.88288104 6.06877013 -5 3 C-3.82137388 0.64274776 -2.79264635 0 0 0 Z " fill="#7E8397" transform="translate(120,79)"/>
<path d="M0 0 C1.65 0.33 3.3 0.66 5 1 C5 1.66 5 2.32 5 3 C3.56988027 3.86646667 2.13059381 4.71781829 0.6875 5.5625 C-0.51326172 6.27599609 -0.51326172 6.27599609 -1.73828125 7.00390625 C-4 8 -4 8 -7 7 C-6.34 7 -5.68 7 -5 7 C-5 5.68 -5 4.36 -5 3 C-1.25 1.875 -1.25 1.875 1 3 C0.67 2.01 0.34 1.02 0 0 Z " fill="#3E4356" transform="translate(138,108)"/>
<path d="M0 0 C2.56616632 3.84924948 2.55097676 6.4349304 3 11 C-1.455 10.01 -1.455 10.01 -6 9 C-5.01 8.34 -4.02 7.68 -3 7 C-2.01 7.33 -1.02 7.66 0 8 C-0.185625 7.05125 -0.37125 6.1025 -0.5625 5.125 C-1 2 -1 2 0 0 Z M1 8 C2 10 2 10 2 10 Z " fill="#D0D3DD" transform="translate(134,122)"/>
<path d="M0 0 C0.99 0.66 1.98 1.32 3 2 C3 2.99 3 3.98 3 5 C2.01 4.67 1.02 4.34 0 4 C0 4.66 0 5.32 0 6 C0.99 6.33 1.98 6.66 3 7 C3 8.65 3 10.3 3 12 C2.01 12 1.02 12 0 12 C0 10.68 0 9.36 0 8 C-1.4166747 6.2488427 -1.4166747 6.2488427 -3 5 C-2.67 4.34 -2.34 3.68 -2 3 C-1.34 3 -0.68 3 0 3 C0 2.01 0 1.02 0 0 Z " fill="#C7C9D3" transform="translate(106,105)"/>
<path d="M0 0 C2.72869407 0.03287583 5.2966618 0.56397771 8 1 C8 1.33 8 1.66 8 2 C11.63 2.33 15.26 2.66 19 3 C19 3.33 19 3.66 19 4 C11.64657821 4.20177072 5.05112439 4.21211746 -2 2 C-1.34 1.34 -0.68 0.68 0 0 Z " fill="#656879" transform="translate(136,168)"/>
<path d="M0 0 C0.66 0.99 1.32 1.98 2 3 C1.67 3.66 1.34 4.32 1 5 C1.99 5.33 2.98 5.66 4 6 C3.67 6.33 3.34 6.66 3 7 C4.65 7.99 6.3 8.98 8 10 C6 11 6 11 3 10.4375 C0 9 0 9 -1.5 6.0625 C-2 3 -2 3 0 0 Z " fill="#7C8192" transform="translate(94,81)"/>
<path d="M0 0 C0.99 0.66 1.98 1.32 3 2 C3 2.99 3 3.98 3 5 C-2.75 8 -2.75 8 -5 8 C-4.45773019 4.20411134 -2.79872437 2.52788007 0 0 Z " fill="#2F3048" transform="translate(84,42)"/>
<path d="M0 0 C1.32 0.66 2.64 1.32 4 2 C3.67 3.32 3.34 4.64 3 6 C0.69 6 -1.62 6 -4 6 C-2.84826645 3.53199953 -1.95216435 1.95216435 0 0 Z " fill="#2C3240" transform="translate(103,111)"/>
<path d="M0 0 C6.88490225 -0.57374185 11.02667877 0.5246131 17 4 C16.67 4.99 16.34 5.98 16 7 C15.34773437 6.65066406 14.69546875 6.30132812 14.0234375 5.94140625 C9.36304875 3.51497966 5.32863053 1.42068136 0 1 C0 0.67 0 0.34 0 0 Z " fill="#E2E7EE" transform="translate(124,102)"/>
<path d="M0 0 C0.8125 1.875 0.8125 1.875 1 4 C0.01 5.485 0.01 5.485 -1 7 C-2.65 5.68 -4.3 4.36 -6 3 C-5.34 3 -4.68 3 -4 3 C-4 2.34 -4 1.68 -4 1 C-4.66 0.67 -5.32 0.34 -6 0 C-3 -1 -3 -1 0 0 Z " fill="#484A5D" transform="translate(108,129)"/>
<path d="M0 0 C0.33 1.65 0.66 3.3 1 5 C-1.475 6.485 -1.475 6.485 -4 8 C-4.33 5.69 -4.66 3.38 -5 1 C-2 0 -2 0 0 0 Z " fill="#292E3E" transform="translate(112,117)"/>
<path d="M0 0 C2.31 0 4.62 0 7 0 C7 1.65 7 3.3 7 5 C6.01 5.33 5.02 5.66 4 6 C2.62437146 4.71034824 1.29233607 3.37310707 0 2 C0 1.34 0 0.68 0 0 Z " fill="#3E414C" transform="translate(99,103)"/>
<path d="M0 0 C0.99 0.33 1.98 0.66 3 1 C4.1875 3.5625 4.1875 3.5625 5 6 C3.02 6 1.04 6 -1 6 C-1.33 4.35 -1.66 2.7 -2 1 C-1.34 0.67 -0.68 0.34 0 0 Z " fill="#373C46" transform="translate(124,111)"/>
<path d="M0 0 C2.31 0.33 4.62 0.66 7 1 C5.515 3.475 5.515 3.475 4 6 C2.68 5.67 1.36 5.34 0 5 C0 3.35 0 1.7 0 0 Z " fill="#282E3D" transform="translate(122,103)"/>
<path d="M0 0 C0 2.31 0 4.62 0 7 C-1.32 7.33 -2.64 7.66 -4 8 C-4.33 6.35 -4.66 4.7 -5 3 C-1.125 0 -1.125 0 0 0 Z " fill="#222834" transform="translate(121,95)"/>
<path d="M0 0 C1.98 0.495 1.98 0.495 4 1 C4 2.98 4 4.96 4 7 C3.01 7 2.02 7 1 7 C0.34 6.34 -0.32 5.68 -1 5 C-0.625 2.375 -0.625 2.375 0 0 Z " fill="#42434E" transform="translate(117,117)"/>
<path d="M0 0 C3.09853722 3.09853722 2.84333519 6.74868686 3 11 C2.5625 14.5625 2.5625 14.5625 2 17 C1.67 17 1.34 17 1 17 C1 15.35 1 13.7 1 12 C0.34 11.67 -0.32 11.34 -1 11 C-0.33333333 8.33333333 0.33333333 5.66666667 1 3 C0.34 2.67 -0.32 2.34 -1 2 C-0.67 1.34 -0.34 0.68 0 0 Z " fill="#5B5E74" transform="translate(104,81)"/>
<path d="M0 0 C0.66 0 1.32 0 2 0 C2 4.62 2 9.24 2 14 C1.01 14.495 1.01 14.495 0 15 C0 13.02 0 11.04 0 9 C-0.66 8.67 -1.32 8.34 -2 8 C-1.125 1.125 -1.125 1.125 0 0 Z " fill="#5E6479" transform="translate(100,166)"/>
<path d="M0 0 C1.24546405 2.49092811 0.7767578 3.41080733 0 6 C0.66 6.33 1.32 6.66 2 7 C1.01 7 0.02 7 -1 7 C-1 6.01 -1 5.02 -1 4 C-1.66 4 -2.32 4 -3 4 C-3.33 4.99 -3.66 5.98 -4 7 C-4.66 6.67 -5.32 6.34 -6 6 C-6 5.01 -6 4.02 -6 3 C-4.02 2.01 -2.04 1.02 0 0 Z " fill="#464A63" transform="translate(159,77)"/>
<path d="M0 0 C1.6415049 3.2830098 0.51888624 6.42545033 0 10 C-1.32 10 -2.64 10 -4 10 C-3.52449439 8.51965236 -3.04448784 7.04074979 -2.5625 5.5625 C-2.29566406 4.73878906 -2.02882813 3.91507813 -1.75390625 3.06640625 C-1 1 -1 1 0 0 Z " fill="#4E5060" transform="translate(76,51)"/>
<path d="M0 0 C0.99 0.66 1.98 1.32 3 2 C1.02 4.64 -0.96 7.28 -3 10 C-3.66 8.68 -4.32 7.36 -5 6 C-3.68 5.67 -2.36 5.34 -1 5 C-0.67 3.35 -0.34 1.7 0 0 Z " fill="#4B4D5D" transform="translate(184,149)"/>
<path d="M0 0 C0.66 0 1.32 0 2 0 C2 0.66 2 1.32 2 2 C2.66 2.33 3.32 2.66 4 3 C3.6875 4.875 3.6875 4.875 3 7 C2.01 7.66 1.02 8.32 0 9 C0 8.34 0 7.68 0 7 C-0.99 6.67 -1.98 6.34 -3 6 C-2.67 5.34 -2.34 4.68 -2 4 C-1.34 4 -0.68 4 0 4 C0 2.68 0 1.36 0 0 Z " fill="#6B727F" transform="translate(94,127)"/>
<path d="M0 0 C1.20628008 2.33214148 2.1654738 4.49642139 3 7 C1.68 7.99 0.36 8.98 -1 10 C-1.33 7.69 -1.66 5.38 -2 3 C-1.34 3 -0.68 3 0 3 C0 2.01 0 1.02 0 0 Z " fill="#646979" transform="translate(95,100)"/>
<path d="M0 0 C2.15377564 2.62198774 3.40072174 4.64404172 4 8 C2.68 8 1.36 8 0 8 C-0.66 6.02 -1.32 4.04 -2 2 C-1.34 1.34 -0.68 0.68 0 0 Z " fill="#1C203C" transform="translate(112,124)"/>
<path d="M0 0 C0.66 0 1.32 0 2 0 C2.33 0.99 2.66 1.98 3 3 C4.65 2.01 6.3 1.02 8 0 C8.33 0.66 8.66 1.32 9 2 C6.06171403 4.50298434 3.82097239 5.46930939 0 6 C0 4.02 0 2.04 0 0 Z " fill="#CFD3E0" transform="translate(106,121)"/>
<path d="M0 0 C1.65 1.65 3.3 3.3 5 5 C4.34 5.66 3.68 6.32 3 7 C0.5 5.625 0.5 5.625 -2 4 C-2 3.34 -2 2.68 -2 2 C-1.34 2 -0.68 2 0 2 C0 1.34 0 0.68 0 0 Z " fill="#484A60" transform="translate(180,95)"/>
<path d="M0 0 C3.93673644 1.31224548 6.22719294 2.91910327 9 6 C8.01 6.495 8.01 6.495 7 7 C7 6.34 7 5.68 7 5 C6.01 5.33 5.02 5.66 4 6 C2.62437146 4.71034824 1.29233607 3.37310707 0 2 C0 1.34 0 0.68 0 0 Z " fill="#4E4F62" transform="translate(135,36)"/>
<path d="M0 0 C0.53625 0.226875 1.0725 0.45375 1.625 0.6875 C1.625 1.3475 1.625 2.0075 1.625 2.6875 C-2.03805234 3.43676071 -4.79855152 3.9255014 -8.375 2.6875 C-2.95961538 -0.38942308 -2.95961538 -0.38942308 0 0 Z " fill="#3B4154" transform="translate(100.375,33.3125)"/>
<path d="M0 0 C1.65 0.33 3.3 0.66 5 1 C5 1.66 5 2.32 5 3 C4.34 3 3.68 3 3 3 C2.67 3.66 2.34 4.32 2 5 C1.01 5.495 1.01 5.495 0 6 C-0.66 5.34 -1.32 4.68 -2 4 C-2 3.34 -2 2.68 -2 2 C-1.34 2 -0.68 2 0 2 C0 1.34 0 0.68 0 0 Z " fill="#1C1F3C" transform="translate(85,114)"/>
<path d="M0 0 C0.99 1.32 1.98 2.64 3 4 C2 6 2 6 -1.0625 7.125 C-2.031875 7.41375 -3.00125 7.7025 -4 8 C-2.87548273 5.0280615 -1.77706209 2.66559313 0 0 Z " fill="#48485C" transform="translate(44,99)"/>
<path d="M0 0 C0.99 0.33 1.98 0.66 3 1 C2.34 1 1.68 1 1 1 C1.33 1.99 1.66 2.98 2 4 C1.34 4 0.68 4 0 4 C-0.33 5.98 -0.66 7.96 -1 10 C-1.33 9.01 -1.66 8.02 -2 7 C-2.66 7 -3.32 7 -4 7 C-2.79618552 4.50638429 -1.54571278 2.31856917 0 0 Z " fill="#9798A8" transform="translate(94,121)"/>
<path d="M0 0 C1.98 0.495 1.98 0.495 4 1 C3.01 1 2.02 1 1 1 C1 2.32 1 3.64 1 5 C1.66 5 2.32 5 3 5 C3 6.32 3 7.64 3 9 C1.68 8.67 0.36 8.34 -1 8 C-0.67 5.36 -0.34 2.72 0 0 Z " fill="#656778" transform="translate(123,118)"/>
<path d="M0 0 C1.32 0.99 2.64 1.98 4 3 C3.67 3.99 3.34 4.98 3 6 C1.68 5.67 0.36 5.34 -1 5 C-1 1 -1 1 0 0 Z " fill="#49505A" transform="translate(119,106)"/>
<path d="M0 0 C0.99 0.33 1.98 0.66 3 1 C2.67 1.66 2.34 2.32 2 3 C1.01 3.33 0.02 3.66 -1 4 C-1 4.66 -1 5.32 -1 6 C-1.99 5.67 -2.98 5.34 -4 5 C-3 2 -3 2 0 0 Z " fill="#1F213C" transform="translate(44,104)"/>
<path d="M0 0 C0 0.66 0 1.32 0 2 C-1.45635371 2.22174933 -2.91522956 2.42698698 -4.375 2.625 C-5.18710938 2.74101563 -5.99921875 2.85703125 -6.8359375 2.9765625 C-7.55007812 2.98429687 -8.26421875 2.99203125 -9 3 C-9.66 2.34 -10.32 1.68 -11 1 C-7.32589215 -0.17571451 -3.83070817 -0.07366746 0 0 Z " fill="#46495A" transform="translate(112,31)"/>
<path d="M0 0 C1.32 0.66 2.64 1.32 4 2 C3.67 3.32 3.34 4.64 3 6 C1.68 6 0.36 6 -1 6 C-0.67 4.02 -0.34 2.04 0 0 Z " fill="#242533" transform="translate(109,96)"/>
<path d="M0 0 C1.89213369 2.38573379 3.02391783 4.07175348 4 7 C2.02 7 0.04 7 -2 7 C-1.42415568 4.61435923 -0.77772405 2.33317216 0 0 Z " fill="#1A1F37" transform="translate(116,86)"/>
<path d="M0 0 C2.18994248 3.28491373 2.35277339 4.83095639 2.625 8.6875 C2.69976562 9.68136719 2.77453125 10.67523438 2.8515625 11.69921875 C2.92503906 12.83810547 2.92503906 12.83810547 3 14 C2.67 13.34 2.34 12.68 2 12 C1.34 12 0.68 12 0 12 C0 8.04 0 4.08 0 0 Z " fill="#989DA6" transform="translate(157,62)"/>
<path d="M0 0 C0.99 0.99 1.98 1.98 3 3 C2.34 4.65 1.68 6.3 1 8 C-0.5 6.625 -0.5 6.625 -2 5 C-2 4.34 -2 3.68 -2 3 C-1.34 3 -0.68 3 0 3 C0 2.01 0 1.02 0 0 Z " fill="#3A3B56" transform="translate(148,46)"/>
<path d="M0 0 C0.66 0 1.32 0 2 0 C2.66 1.65 3.32 3.3 4 5 C2.02 5 0.04 5 -2 5 C-1.34 3.35 -0.68 1.7 0 0 Z " fill="#30343D" transform="translate(135,184)"/>
<path d="M0 0 C0.66 0.66 1.32 1.32 2 2 C1.75 5.0625 1.75 5.0625 1 8 C0.01 8.495 0.01 8.495 -1 9 C-1.09765625 2.84765625 -1.09765625 2.84765625 -1 1 C-0.67 0.67 -0.34 0.34 0 0 Z " fill="#1A203A" transform="translate(99,173)"/>
<path d="M0 0 C0.66 0 1.32 0 2 0 C2.33 1.65 2.66 3.3 3 5 C1.68 5.33 0.36 5.66 -1 6 C-1.66 4.68 -2.32 3.36 -3 2 C-2.01 2 -1.02 2 0 2 C0 1.34 0 0.68 0 0 Z " fill="#1F233F" transform="translate(134,163)"/>
<path d="M0 0 C0.66 0.33 1.32 0.66 2 1 C1.34 2.65 0.68 4.3 0 6 C-0.99 6 -1.98 6 -3 6 C-3.33 5.34 -3.66 4.68 -4 4 C-2.68 2.68 -1.36 1.36 0 0 Z " fill="#1D2241" transform="translate(53,153)"/>
<path d="M0 0 C0.33 0.66 0.66 1.32 1 2 C1.99 2 2.98 2 4 2 C3.34 3.65 2.68 5.3 2 7 C0 5.625 0 5.625 -2 4 C-2 3.34 -2 2.68 -2 2 C-1.34 2 -0.68 2 0 2 C0 1.34 0 0.68 0 0 Z " fill="#34364E" transform="translate(186,142)"/>
<path d="M0 0 C3 2 3 2 3.6875 4.625 C3.790625 5.40875 3.89375 6.1925 4 7 C3.01 7.495 3.01 7.495 2 8 C0.4375 5.6875 0.4375 5.6875 -1 3 C-0.67 2.01 -0.34 1.02 0 0 Z " fill="#4B4F5B" transform="translate(109,126)"/>
<path d="M0 0 C0.66 0.33 1.32 0.66 2 1 C2.67375452 3.088639 3 4.80363095 3 7 C0.525 6.01 0.525 6.01 -2 5 C-1.34 3.35 -0.68 1.7 0 0 Z " fill="#232645" transform="translate(128,120)"/>
<path d="M0 0 C0.33 1.65 0.66 3.3 1 5 C-0.32 5 -1.64 5 -3 5 C-3 4.34 -3 3.68 -3 3 C-3.66 3 -4.32 3 -5 3 C-5 2.34 -5 1.68 -5 1 C-3 0 -3 0 0 0 Z " fill="#2F3548" transform="translate(130,97)"/>
<path d="M0 0 C2.09749995 2.35968744 2.96905704 3.54616994 3.1875 6.75 C3.125625 7.4925 3.06375 8.235 3 9 C1.68 9.33 0.36 9.66 -1 10 C-0.67 9.34 -0.34 8.68 0 8 C0.66 8 1.32 8 2 8 C2 7.34 2 6.68 2 6 C1.01 5.67 0.02 5.34 -1 5 C-0.67 3.35 -0.34 1.7 0 0 Z " fill="#1B2033" transform="translate(92,94)"/>
<path d="M0 0 C2.97 0.495 2.97 0.495 6 1 C6 1.99 6 2.98 6 4 C4.68 4.33 3.36 4.66 2 5 C1.34 3.35 0.68 1.7 0 0 Z " fill="#242B3D" transform="translate(94,90)"/>
<path d="M0 0 C6.75 -0.125 6.75 -0.125 9 1 C8.67 1.66 8.34 2.32 8 3 C5.36 3 2.72 3 0 3 C0 2.01 0 1.02 0 0 Z " fill="#191E34" transform="translate(130,85)"/>
<path d="M0 0 C0.6875 1.6875 0.6875 1.6875 1 4 C-0.3125 6.75 -0.3125 6.75 -2 9 C-2.66 9 -3.32 9 -4 9 C-2.94124926 5.59687262 -1.99097846 2.98646769 0 0 Z " fill="#686676" transform="translate(95,178)"/>
<path d="M0 0 C0.33 1.65 0.66 3.3 1 5 C-1.02045442 4.39816251 -3.02111039 3.72693904 -5 3 C-5.33 2.34 -5.66 1.68 -6 1 C-3.92446352 0.4465236 -2.15634036 0 0 0 Z " fill="#3D4154" transform="translate(60,162)"/>
<path d="M0 0 C1.32 1.32 2.64 2.64 4 4 C2.68 5.32 1.36 6.64 0 8 C-0.79953138 4.71303767 -1.09658936 3.28976808 0 0 Z " fill="#3F3D58" transform="translate(144,42)"/>
<path d="M0 0 C0.66 0 1.32 0 2 0 C6 4.47058824 6 4.47058824 6 7 C5.01 6.67 4.02 6.34 3 6 C3 5.34 3 4.68 3 4 C1.68 3.67 0.36 3.34 -1 3 C-0.67 2.01 -0.34 1.02 0 0 Z " fill="#1E223D" transform="translate(133,36)"/>
<path d="M0 0 C1.65 0 3.3 0 5 0 C5.66 1.32 6.32 2.64 7 4 C4.69 3.34 2.38 2.68 0 2 C0 1.34 0 0.68 0 0 Z " fill="#454A62" transform="translate(126,165)"/>
<path d="M0 0 C1.32 1.65 2.64 3.3 4 5 C-0.75 4.125 -0.75 4.125 -3 3 C-3 2.34 -3 1.68 -3 1 C-2.01 0.67 -1.02 0.34 0 0 Z " fill="#515462" transform="translate(94,111)"/>
<path d="M0 0 C0.33 0.99 0.66 1.98 1 3 C-1.475 4.485 -1.475 4.485 -4 6 C-4.33 4.35 -4.66 2.7 -5 1 C-3.35 0.67 -1.7 0.34 0 0 Z " fill="#969CA7" transform="translate(120,92)"/>
<path d="M0 0 C1.9955516 3.99110319 2.19546065 5.69986566 2 10 C1.01 9.67 0.02 9.34 -1 9 C-0.67 6.03 -0.34 3.06 0 0 Z " fill="#181E34" transform="translate(156,62)"/>
</svg>
