<?xml version="1.0" encoding="UTF-8"?>
<svg version="1.1" xmlns="http://www.w3.org/2000/svg" width="1200" height="800">
<path d="M0 0 C396 0 792 0 1200 0 C1200 264 1200 528 1200 800 C804 800 408 800 0 800 C0 536 0 272 0 0 Z " fill="#FEFEFE" transform="translate(0,0)"/>
<path d="M0 0 C4.29 0 8.58 0 13 0 C13 8.58 13 17.16 13 26 C13.99 26 14.98 26 16 26 C16.04125 25.443125 16.0825 24.88625 16.125 24.3125 C17.15433083 21.59212567 18.50281573 19.80281915 20.76953125 17.97265625 C25.77077554 15.79172835 31.66245125 16.67097302 37 17 C37 17.66 37 18.32 37 19 C37.59554687 19.26167969 38.19109375 19.52335937 38.8046875 19.79296875 C41.12380782 21.06807227 42.42305349 22.30313384 44.125 24.3125 C44.62257813 24.88613281 45.12015625 25.45976562 45.6328125 26.05078125 C50.48348427 32.96645329 49.79309116 41.90038688 49 50 C47.5902892 56.16462725 45.16581691 61.15567114 40 65 C33.93080835 67.40477405 27.95015265 68.21476874 21.8125 65.6875 C20.884375 65.130625 19.95625 64.57375 19 64 C18.05125 63.443125 17.1025 62.88625 16.125 62.3125 C15.42375 61.879375 14.7225 61.44625 14 61 C14.020625 61.969375 14.04125 62.93875 14.0625 63.9375 C14 67 14 67 13 68 C10.64686445 68.07271741 8.29166332 68.08370868 5.9375 68.0625 C4.00197266 68.04896484 4.00197266 68.04896484 2.02734375 68.03515625 C1.02832031 68.02355469 0.02929688 68.01195312 -1 68 C-1 66.02 -1 64.04 -1 62 C1.31 62 3.62 62 6 62 C6 43.19 6 24.38 6 5 C4.02 5 2.04 5 0 5 C0 3.35 0 1.7 0 0 Z " fill="#222223" transform="translate(479,381)"/>
<path d="M0 0 C2.6058889 -0.13494246 5.20482111 -0.23402299 7.8125 -0.3125 C8.55048828 -0.35439453 9.28847656 -0.39628906 10.04882812 -0.43945312 C12.20703125 -0.48828125 12.20703125 -0.48828125 16 0 C18.79067593 3.17122265 19.75753469 6.92156656 20.9375 10.9375 C21.27523437 12.07316406 21.61296875 13.20882813 21.9609375 14.37890625 C23.01141005 18.0397636 24.03689952 21.70710819 25.0625 25.375 C26.07317098 28.96189114 27.0680641 32.42479524 28.625 35.8125 C30.08436623 39.19557626 30.81024946 42.37583514 31.47265625 45.984375 C31.95948281 48.29243287 31.95948281 48.29243287 34 51 C34 52.32 34 53.64 34 55 C35.65 55 37.3 55 39 55 C39 58.3 39 61.6 39 65 C34.38 65 29.76 65 25 65 C23.1459165 59.82401689 22 56.56243813 22 51 C8.635 51.495 8.635 51.495 -5 52 C-5 54.97 -5 57.94 -5 61 C-5.66 62.32 -6.32 63.64 -7 65 C-11.62 65 -16.24 65 -21 65 C-21 61.7 -21 58.4 -21 55 C-19.02 54.505 -19.02 54.505 -17 54 C-16.34 51.69 -15.68 49.38 -15 47 C-14.34 47 -13.68 47 -13 47 C-12.8453125 45.7315625 -12.8453125 45.7315625 -12.6875 44.4375 C-12 41 -12 41 -10.5 37.5625 C-8.97006238 33.92889816 -8.48654071 30.89232566 -8 27 C-7.4082138 24.63747854 -6.71329863 22.33010885 -6 20 C-5.34 20 -4.68 20 -4 20 C-3.30826876 16.04725005 -2.76973652 12.11645809 -2.37890625 8.125 C-1.8766871 5.30843072 -0.94574001 2.69555047 0 0 Z " fill="#101011" transform="translate(632,383)"/>
<path d="M0 0 C6.6 0 13.2 0 20 0 C20 3.3 20 6.6 20 10 C19.01 10 18.02 10 17 10 C17.98217733 16.76030566 18.97783811 23.46502814 20.6328125 30.09765625 C21 32 21 32 21 36 C21.99 36 22.98 36 24 36 C24.66147659 31.18067059 25.09563236 26.42007609 25.375 21.5625 C25.7222477 16.72343532 26.49064352 12.60103154 28.28125 8.09765625 C29.26785956 5.40547793 29.26785956 5.40547793 30 0 C34.29 0 38.58 0 43 0 C45.55248346 7.16342131 47.38051509 13.44228415 48 21 C48.33 21.33 48.66 21.66 49 22 C49.23427778 24.01594582 49.41336124 26.038474 49.5625 28.0625 C49.64628906 29.16722656 49.73007812 30.27195312 49.81640625 31.41015625 C49.90728516 32.69212891 49.90728516 32.69212891 50 34 C51.32 34.33 52.64 34.66 54 35 C53.95875 33.72125 53.9175 32.4425 53.875 31.125 C53.875 23.8016626 55.47318834 16.8584888 58 10 C56.68 10 55.36 10 54 10 C54 6.7 54 3.4 54 0 C56.97922593 -0.02683987 59.95821295 -0.04676037 62.9375 -0.0625 C64.21270508 -0.07506836 64.21270508 -0.07506836 65.51367188 -0.08789062 C66.32255859 -0.09111328 67.13144531 -0.09433594 67.96484375 -0.09765625 C68.7137085 -0.10289307 69.46257324 -0.10812988 70.23413086 -0.11352539 C72 0 72 0 73 1 C73.14115161 3.67058851 73.04247107 6.32432238 73 9 C71.68 9.33 70.36 9.66 69 10 C68.81824219 10.78503906 68.63648438 11.57007813 68.44921875 12.37890625 C67.34891047 16.97763058 66.31398567 21.29957043 64.375 25.625 C62.57430135 30.04489669 62.27609561 34.26829252 62 39 C61.34 39 60.68 39 60 39 C59.90912109 39.95712891 59.90912109 39.95712891 59.81640625 40.93359375 C59.73261719 41.75988281 59.64882813 42.58617187 59.5625 43.4375 C59.48128906 44.26121094 59.40007813 45.08492188 59.31640625 45.93359375 C59 48 59 48 58 49 C55.98035801 49.07244053 53.95832876 49.08377188 51.9375 49.0625 C50.28041016 49.04896484 50.28041016 49.04896484 48.58984375 49.03515625 C47.73519531 49.02355469 46.88054688 49.01195312 46 49 C43.35817457 42.62631229 41.96801113 36.4141899 40.8125 29.625 C40.63525391 28.62855469 40.45800781 27.63210938 40.27539062 26.60546875 C39 19.34706805 39 19.34706805 39 17 C37.35 17.33 35.7 17.66 34 18 C34 21.63 34 25.26 34 29 C33.34 29 32.68 29 32 29 C32.04125 30.27875 32.0825 31.5575 32.125 32.875 C32.14168736 38.1231754 31.1516654 42.88948479 30 48 C25.05 48 20.1 48 15 48 C12.90291413 42.75728532 12.81606878 40.42597111 13 35 C12.34 35 11.68 35 11 35 C8.71428571 26.57142857 8.71428571 26.57142857 9 22 C8.34 22 7.68 22 7 22 C5.79727181 19.59454362 5.89928528 18.05003047 5.9375 15.375 C5.95103516 14.14910156 5.95103516 14.14910156 5.96484375 12.8984375 C5.97644531 12.27195312 5.98804688 11.64546875 6 11 C5.195625 11.020625 4.39125 11.04125 3.5625 11.0625 C1 11 1 11 0 10 C0 6.7 0 3.4 0 0 Z " fill="#0E0E0E" transform="translate(670,399)"/>
<path d="M0 0 C2.88759761 2.09294866 4.26151407 4.36056448 6.015625 7.4609375 C6.46972656 10.89599609 6.46972656 10.89599609 6.40625 14.609375 C6.40059021 15.26676666 6.39493042 15.92415833 6.38909912 16.60147095 C6.36688775 18.68039941 6.3167292 20.75753913 6.265625 22.8359375 C6.24553989 24.25388118 6.22729265 25.67185215 6.2109375 27.08984375 C6.16707567 30.54744627 6.09815937 34.00401701 6.015625 37.4609375 C7.335625 37.4609375 8.655625 37.4609375 10.015625 37.4609375 C10.015625 40.4309375 10.015625 43.4009375 10.015625 46.4609375 C5.395625 46.4609375 0.775625 46.4609375 -3.984375 46.4609375 C-3.984375 44.8109375 -3.984375 43.1609375 -3.984375 41.4609375 C-6.61338788 42.98299759 -8.82803464 44.30459714 -10.984375 46.4609375 C-16.81306873 48.44625676 -23.67225429 48.25967011 -29.421875 46.2734375 C-33.56458879 43.34322531 -36.01441073 40.44673516 -36.984375 35.4609375 C-37.57564287 30.26622694 -37.86354753 26.68201046 -34.734375 22.3359375 C-31.984375 20.4609375 -31.984375 20.4609375 -27.984375 20.4609375 C-27.984375 19.8009375 -27.984375 19.1409375 -27.984375 18.4609375 C-20.02480949 16.366315 -12.17470727 15.87099366 -3.984375 15.4609375 C-4.479375 14.31625 -4.479375 14.31625 -4.984375 13.1484375 C-5.984375 10.4609375 -5.984375 10.4609375 -5.984375 7.4609375 C-9.06735551 6.43327733 -11.31567926 6.29495012 -14.546875 6.2734375 C-15.51753906 6.25925781 -16.48820313 6.24507813 -17.48828125 6.23046875 C-20.15836416 6.20886004 -20.15836416 6.20886004 -21.984375 8.4609375 C-22.314375 9.7809375 -22.644375 11.1009375 -22.984375 12.4609375 C-26.614375 12.4609375 -30.244375 12.4609375 -33.984375 12.4609375 C-33.984375 10.1509375 -33.984375 7.8409375 -33.984375 5.4609375 C-33.324375 5.4609375 -32.664375 5.4609375 -31.984375 5.4609375 C-31.96375 4.8834375 -31.943125 4.3059375 -31.921875 3.7109375 C-30.74754411 0.89254336 -29.22108757 -0.37294356 -26.53125 -1.7734375 C-18.02612078 -4.33019414 -8.10853408 -3.31712758 0 0 Z " fill="#0D0D0D" transform="translate(783.984375,401.5390625)"/>
<path d="M0 0 C0.75539063 -0.01224609 1.51078125 -0.02449219 2.2890625 -0.03710938 C6.52847819 -0.04822672 9.75480179 0.23698178 13.625 2.1875 C13.625 3.1775 13.625 4.1675 13.625 5.1875 C14.24375 5.27 14.8625 5.3525 15.5 5.4375 C17.625 6.1875 17.625 6.1875 18.6875 8.1875 C18.996875 8.8475 19.30625 9.5075 19.625 10.1875 C20.615 10.5175 21.605 10.8475 22.625 11.1875 C25.3385876 16.75749561 24.625 20.49693211 24.625 27.1875 C12.745 27.1875 0.865 27.1875 -11.375 27.1875 C-10.715 29.1675 -10.055 31.1475 -9.375 33.1875 C-8.715 33.5175 -8.055 33.8475 -7.375 34.1875 C-7.375 34.8475 -7.375 35.5075 -7.375 36.1875 C-6.735625 36.496875 -6.09625 36.80625 -5.4375 37.125 C-3.375 38.1875 -3.375 38.1875 -2.375 39.1875 C1.3315801 39.61636051 4.92598895 39.70185953 8.625 39.1875 C9.98327971 37.54110035 11.31754251 35.87454193 12.625 34.1875 C15.99316438 33.73089079 19.24599097 33.89731793 22.625 34.1875 C22.30261212 39.50689997 19.44347195 42.7576336 15.625 46.1875 C8.36788103 50.56915674 -1.26086705 50.12433104 -9.375 48.1875 C-12.97881217 46.36743869 -15.82487036 44.33338642 -18.375 41.1875 C-18.375 40.5275 -18.375 39.8675 -18.375 39.1875 C-19.035 39.1875 -19.695 39.1875 -20.375 39.1875 C-22.54992599 33.88827557 -22.67695151 29.19058027 -22.625 23.5625 C-22.63273438 22.716875 -22.64046875 21.87125 -22.6484375 21 C-22.64585937 20.18273437 -22.64328125 19.36546875 -22.640625 18.5234375 C-22.63836914 17.78657715 -22.63611328 17.0497168 -22.63378906 16.29052734 C-22.34012977 13.90413007 -21.55677801 12.26529341 -20.375 10.1875 C-19.715 10.1875 -19.055 10.1875 -18.375 10.1875 C-18.33375 9.630625 -18.2925 9.07375 -18.25 8.5 C-16.90875322 4.95527636 -14.36575278 3.40065705 -11.375 1.1875 C-7.56514895 -0.08245035 -3.96890381 0.00335211 0 0 Z " fill="#0C0C0D" transform="translate(861.375,398.8125)"/>
<path d="M0 0 C1.18851562 0.00902344 2.37703125 0.01804687 3.6015625 0.02734375 C4.51679688 0.03894531 5.43203125 0.05054688 6.375 0.0625 C6.87 1.5475 6.87 1.5475 7.375 3.0625 C8.035 3.0625 8.695 3.0625 9.375 3.0625 C9.375 4.3825 9.375 5.7025 9.375 7.0625 C10.695 7.0625 12.015 7.0625 13.375 7.0625 C13.375 6.0725 13.375 5.0825 13.375 4.0625 C16.11691487 1.19571615 17.84712297 0.15017717 21.78515625 -0.50390625 C23.59306641 -0.50197266 23.59306641 -0.50197266 25.4375 -0.5 C27.24927734 -0.53287109 27.24927734 -0.53287109 29.09765625 -0.56640625 C32.375 0.0625 32.375 0.0625 34.74609375 2.47265625 C37.49785276 6.84775511 37.50631976 10.06410675 37.47265625 15.1328125 C37.4712413 15.92904022 37.46982635 16.72526794 37.46836853 17.54562378 C37.46276345 20.0929538 37.45021014 22.64019647 37.4375 25.1875 C37.43248565 26.91275915 37.42792263 28.63801967 37.42382812 30.36328125 C37.41279237 34.59638791 37.39552436 38.82942914 37.375 43.0625 C39.0765625 43.0315625 39.0765625 43.0315625 40.8125 43 C44.375 43.0625 44.375 43.0625 45.375 44.0625 C45.375 46.3725 45.375 48.6825 45.375 51.0625 C40.425 51.0625 35.475 51.0625 30.375 51.0625 C30.375 37.2025 30.375 23.3425 30.375 9.0625 C29.715 9.0625 29.055 9.0625 28.375 9.0625 C28.375 8.0725 28.375 7.0825 28.375 6.0625 C26.93760487 6.03537934 25.50006137 6.01604933 24.0625 6 C23.26199219 5.98839844 22.46148437 5.97679687 21.63671875 5.96484375 C19.20638666 5.96592145 19.20638666 5.96592145 16.375 7.0625 C16.01770064 8.38961192 15.69174575 9.72512906 15.375 11.0625 C14.70855469 11.99964844 14.04210937 12.93679688 13.35546875 13.90234375 C10.25220238 19.22500407 10.94838946 25.02580871 11.125 31 C11.14304687 32.16080078 11.16109375 33.32160156 11.1796875 34.51757812 C11.22658741 37.36674747 11.29220941 40.21418531 11.375 43.0625 C14.345 43.5575 14.345 43.5575 17.375 44.0625 C17.375 46.0425 17.375 48.0225 17.375 50.0625 C12.755 50.0625 8.135 50.0625 3.375 50.0625 C3.34994385 48.8257251 3.3248877 47.5889502 3.29907227 46.31469727 C3.20517747 41.74313287 3.10491371 37.17172682 3.00268555 32.6003418 C2.95926856 30.61860854 2.91759863 28.63683622 2.87768555 26.6550293 C2.82014617 23.8128683 2.75640555 20.97090517 2.69140625 18.12890625 C2.67469376 17.23724258 2.65798126 16.34557892 2.64076233 15.42689514 C2.938413 11.42301605 2.938413 11.42301605 1.375 8.0625 C-3.10971305 7.63063874 -7.31303179 7.65250993 -11.625 9 C-16.49786286 14.02513982 -15.84285868 22.44417863 -15.80078125 29.02929688 C-15.78402344 30.05087891 -15.76726562 31.07246094 -15.75 32.125 C-15.73646484 33.70958008 -15.73646484 33.70958008 -15.72265625 35.32617188 C-15.6993167 37.90519253 -15.66657775 40.4837199 -15.625 43.0625 C-13.645 43.7225 -11.665 44.3825 -9.625 45.0625 C-9.582279 46.72861905 -9.58436168 48.39632885 -9.625 50.0625 C-10.625 51.0625 -10.625 51.0625 -12.66625977 51.17602539 C-13.97808228 51.16817017 -13.97808228 51.16817017 -15.31640625 51.16015625 C-16.26064453 51.15693359 -17.20488281 51.15371094 -18.17773438 51.15039062 C-19.17095703 51.14201172 -20.16417969 51.13363281 -21.1875 51.125 C-22.18458984 51.12048828 -23.18167969 51.11597656 -24.20898438 51.11132812 C-26.68104849 51.09950007 -29.15299518 51.08301849 -31.625 51.0625 C-31.625 49.0825 -31.625 47.1025 -31.625 45.0625 C-29.315 45.0625 -27.005 45.0625 -24.625 45.0625 C-24.625 32.1925 -24.625 19.3225 -24.625 6.0625 C-26.935 6.0625 -29.245 6.0625 -31.625 6.0625 C-31.625 4.4125 -31.625 2.7625 -31.625 1.0625 C-26.675 1.0625 -21.725 1.0625 -16.625 1.0625 C-16.625 3.3725 -16.625 5.6825 -16.625 8.0625 C-16.07070313 7.56878906 -15.51640625 7.07507813 -14.9453125 6.56640625 C-14.22085937 5.92574219 -13.49640625 5.28507812 -12.75 4.625 C-12.03070313 3.98691406 -11.31140625 3.34882813 -10.5703125 2.69140625 C-7.01667761 -0.28422778 -4.57468299 -0.04484983 0 0 Z " fill="#111011" transform="translate(426.625,397.9375)"/>
<path d="M0 0 C5.61 0 11.22 0 17 0 C17.33 0.99 17.66 1.98 18 3 C18.639375 3.268125 19.27875 3.53625 19.9375 3.8125 C22 5 22 5 23.25 8.125 C23.4975 9.07375 23.745 10.0225 24 11 C24.66 11 25.32 11 26 11 C26 22.22 26 33.44 26 45 C28.31 45 30.62 45 33 45 C33 46.65 33 48.3 33 50 C28.71 50 24.42 50 20 50 C20 47.69 20 45.38 20 43 C18.68 43 17.36 43 16 43 C15.71125 43.598125 15.4225 44.19625 15.125 44.8125 C12.56906121 49.78238099 12.56906121 49.78238099 10.22265625 50.6796875 C7.60250961 51.05728333 5.08498367 51.13220404 2.4375 51.125 C1.48746094 51.12757813 0.53742188 51.13015625 -0.44140625 51.1328125 C-3.87226035 50.95472236 -5.60430234 50.35047507 -8.1875 48.0625 C-10 46 -10 46 -10 44 C-10.66 44 -11.32 44 -12 44 C-13.45731527 39.44588979 -13.53384408 34.91294128 -12.25 30.3125 C-9.37063802 24.98568034 -5.6252081 23.00219271 0 21 C6.57186764 19.55418912 13.30529657 19.90939499 20 20 C19.33216592 13.32104837 19.33216592 13.32104837 15.875 7.875 C9.9062983 6.05843861 4.03391474 6.99434754 -2 8 C-2.309375 8.804375 -2.61875 9.60875 -2.9375 10.4375 C-4 13 -4 13 -5 14 C-6.99958364 14.04080783 -9.00045254 14.04254356 -11 14 C-9.69139073 5.78675497 -9.69139073 5.78675497 -7.1875 2.9375 C-4.63247553 1.84248951 -2.75293162 1.77058903 0 2 C0 1.34 0 0.68 0 0 Z " fill="#100F10" transform="translate(356,398)"/>
<path d="M0 0 C2.75 2.5 2.75 2.5 5 5 C7.16620544 6.29519995 7.16620544 6.29519995 9 7 C9 4.36 9 1.72 9 -1 C10.98 -1 12.96 -1 15 -1 C15 5.27 15 11.54 15 18 C9 18 9 18 7 17 C6.71125 16.195625 6.4225 15.39125 6.125 14.5625 C4.77490232 11.48727752 3.97360682 11.31188536 1 10 C-0.35308313 8.68671343 -1.68870078 7.35500919 -3 6 C-6.47041306 4.26479347 -10.20571722 4.52183343 -14 5 C-16.53742165 6.11103166 -18.65346054 7.49821475 -21 9 C-21.99 9 -22.98 9 -24 9 C-24 9.66 -24 10.32 -24 11 C-24.66 11 -25.32 11 -26 11 C-26.06058594 11.61488281 -26.12117188 12.22976563 -26.18359375 12.86328125 C-26.26738281 13.67152344 -26.35117187 14.47976563 -26.4375 15.3125 C-26.51871094 16.11300781 -26.59992188 16.91351563 -26.68359375 17.73828125 C-27 20 -27 20 -28 23 C-28.62348329 32.00473406 -29.12828172 41.14359167 -24 49 C-20.99821846 52.32242638 -18.26296349 54.57901217 -14 56 C-14 56.66 -14 57.32 -14 58 C-6.50746486 57.76214174 -1.65873661 56.01303015 4 51 C7.11149504 46.52722588 7.54240418 42.30811149 8 37 C3.05 37 -1.9 37 -7 37 C-7 32 -7 32 -6 31 C-4.45044441 30.90100477 -2.89646327 30.86920476 -1.34375 30.8671875 C-0.40402344 30.86589844 0.53570312 30.86460937 1.50390625 30.86328125 C2.49261719 30.86714844 3.48132813 30.87101562 4.5 30.875 C5.98306641 30.86919922 5.98306641 30.86919922 7.49609375 30.86328125 C8.90568359 30.86521484 8.90568359 30.86521484 10.34375 30.8671875 C11.21193359 30.86831543 12.08011719 30.86944336 12.97460938 30.87060547 C15 31 15 31 16 32 C16.10012401 34.20650656 16.1308118 36.41622386 16.1328125 38.625 C16.13376923 39.28709473 16.13472595 39.94918945 16.13571167 40.63134766 C16.13639326 42.03352961 16.13454042 43.4357147 16.13037109 44.83789062 C16.12502246 46.99095713 16.1303167 49.14381502 16.13671875 51.296875 C16.13605796 52.65625046 16.13477679 54.0156258 16.1328125 55.375 C16.13168457 56.62023437 16.13055664 57.86546875 16.12939453 59.1484375 C16 62 16 62 15 63 C13.00041636 63.04080783 10.99954746 63.04254356 9 63 C9 60.69 9 58.38 9 56 C8.195625 56.5775 7.39125 57.155 6.5625 57.75 C-0.15966547 62.16832472 -6.8140374 65.50053652 -15 64 C-24.42405624 61.19570286 -30.1234712 56.00697239 -35.37890625 47.86328125 C-38.21170677 42.20755059 -38.37094938 36.51953353 -38.4375 30.3125 C-38.4478125 29.50441895 -38.458125 28.69633789 -38.46875 27.86376953 C-38.38981027 22.52985562 -37.40457932 18.76451128 -35 14 C-34.34 14 -33.68 14 -33 14 C-33 13.01 -33 12.02 -33 11 C-32.34 11 -31.68 11 -31 11 C-30.938125 10.46375 -30.87625 9.9275 -30.8125 9.375 C-29.3424259 5.07786032 -26.96884782 2.00880012 -22.94921875 -0.05078125 C-15.47850191 -2.77327046 -7.4370349 -3.15074382 0 0 Z " fill="#191919" transform="translate(318,385)"/>
<path d="M0 0 C1.22589844 0.01353516 1.22589844 0.01353516 2.4765625 0.02734375 C3.41628906 0.04474609 3.41628906 0.04474609 4.375 0.0625 C4.375 0.7225 4.375 1.3825 4.375 2.0625 C5.220625 1.959375 6.06625 1.85625 6.9375 1.75 C11.61660279 2.17537298 14.30291577 3.47716199 17.375 7.0625 C20.51444382 13.56234556 21.375 18.80297815 21.375 26.0625 C9.825 26.0625 -1.725 26.0625 -13.625 26.0625 C-12.45274048 33.14646594 -12.45274048 33.14646594 -10.625 40.0625 C-8.64454441 40.72429847 -8.64454441 40.72429847 -6.625 41.0625 C-6.295 41.3925 -5.965 41.7225 -5.625 42.0625 C-3.85646708 42.16188863 -2.08381725 42.19219223 -0.3125 42.1875 C1.13576172 42.19136719 1.13576172 42.19136719 2.61328125 42.1953125 C5.07678267 42.07684143 7.06819322 41.91858163 9.375 41.0625 C10.2721875 39.7940625 10.2721875 39.7940625 11.1875 38.5 C13.375 36.0625 13.375 36.0625 17.125 35.75 C18.1975 35.853125 19.27 35.95625 20.375 36.0625 C19.24735662 41.13689519 18.03438147 45.17412041 13.75 48.375 C7.26786531 52.48845905 -0.24506827 51.90131191 -7.625 51.0625 C-10.10546875 50.03125 -10.10546875 50.03125 -11.625 49.0625 C-11.625 48.4025 -11.625 47.7425 -11.625 47.0625 C-12.615 46.7325 -13.605 46.4025 -14.625 46.0625 C-22.02256305 36.59505921 -21.2674067 26.43547796 -20.625 15.0625 C-19.965 15.0625 -19.305 15.0625 -18.625 15.0625 C-18.5425 14.340625 -18.46 13.61875 -18.375 12.875 C-17.29335738 8.81884018 -15.39117608 6.24126484 -11.875 3.89453125 C-7.63679338 1.44873285 -4.8532829 -0.06933261 0 0 Z " fill="#0D0C0C" transform="translate(580.625,398.9375)"/>
<path d="M0 0 C5.61 0 11.22 0 17 0 C17.33 1.65 17.66 3.3 18 5 C18.78375 4.175 19.5675 3.35 20.375 2.5 C24.598463 -1.10415713 28.67214421 -0.35999026 34 0 C34 3.3 34 6.6 34 10 C30.2890625 10.24414062 30.2890625 10.24414062 26.578125 10.48828125 C23.58900187 11.0815769 22.1996781 11.9103058 20 14 C18.10303741 17.11059237 17.71211247 19.5861092 17.5859375 23.203125 C17.54726563 24.1828125 17.50859375 25.1625 17.46875 26.171875 C17.42234375 27.69554687 17.42234375 27.69554687 17.375 29.25 C17.33632813 30.28125 17.29765625 31.3125 17.2578125 32.375 C17.16368326 34.9164894 17.07805021 37.45797433 17 40 C18.98 40 20.96 40 23 40 C23 42.97 23 45.94 23 49 C15.41 49 7.82 49 0 49 C0 46.03 0 43.06 0 40 C1.98 39.505 1.98 39.505 4 39 C4.33 29.43 4.66 19.86 5 10 C3.35 10 1.7 10 0 10 C0 6.7 0 3.4 0 0 Z " fill="#10100F" transform="translate(801,399)"/>
<path d="M0 0 C3.77891403 2.46450915 6.4445411 4.86307533 7.61328125 9.359375 C8.70271391 16.79832931 8.6530281 24.88573471 6 32 C3.84250061 34.71427342 1.89473694 36.07017537 -1 38 C-6.33858949 38.53385895 -9.70985907 38.10168198 -14.359375 35.4609375 C-18.11983988 32.11233306 -19.87023332 29.10081738 -20.4609375 24.08984375 C-20.4530642 22.70545516 -20.4240892 21.32104039 -20.375 19.9375 C-20.37371094 19.24333984 -20.37242187 18.54917969 -20.37109375 17.83398438 C-20.30261837 13.82817465 -19.89172975 10.55537861 -18 7 C-16.68352881 6.30062468 -15.34977849 5.63270867 -14 5 C-13.67 4.34 -13.34 3.68 -13 3 C-12 1 -12 1 -10.375 -0.3125 C-6.79605113 -1.34851151 -3.53391314 -0.98359411 0 0 Z " fill="#F3F0F3" transform="translate(512,404)"/>
<path d="M0 0 C4.86479088 2.29971932 7.73361668 5.118559 10 10 C11.01315621 16.20121474 11.0034336 21.40448829 7.25 26.625 C4.24836488 30.21786628 1.66124524 31.75461345 -2.98828125 32.44140625 C-11.78202677 32.76174246 -11.78202677 32.76174246 -15.3359375 30.5390625 C-19.72011033 26.15488967 -22.30362836 22.44059134 -22.4375 16.125 C-22.33530709 10.46351274 -22.33530709 10.46351274 -19.875 7.0625 C-18.92625 6.381875 -17.9775 5.70125 -17 5 C-16.13375 4.071875 -15.2675 3.14375 -14.375 2.1875 C-10.1744255 -1.25131228 -5.12415579 -0.81711575 0 0 Z " fill="#E3E3E4" transform="translate(910,347)"/>
<path d="M0 0 C5.61 0 11.22 0 17 0 C17.33 0.99 17.66 1.98 18 3 C18.639375 3.268125 19.27875 3.53625 19.9375 3.8125 C22 5 22 5 23.25 8.125 C23.4975 9.07375 23.745 10.0225 24 11 C24.66 11 25.32 11 26 11 C26 22.22 26 33.44 26 45 C28.31 45 30.62 45 33 45 C33 46.65 33 48.3 33 50 C28.71 50 24.42 50 20 50 C20 47.36 20 44.72 20 42 C18.68 41.67 17.36 41.34 16 41 C16.66 40.34 17.32 39.68 18 39 C19.09626428 35.83609804 19.13414476 32.82869089 19.125 29.5 C19.12757813 28.5615625 19.13015625 27.623125 19.1328125 26.65625 C19.01392868 24.2785737 18.67551722 22.27316904 18 20 C18.66 20 19.32 20 20 20 C19.33216592 13.32104837 19.33216592 13.32104837 15.875 7.875 C9.9062983 6.05843861 4.03391474 6.99434754 -2 8 C-2.309375 8.804375 -2.61875 9.60875 -2.9375 10.4375 C-4 13 -4 13 -5 14 C-6.99958364 14.04080783 -9.00045254 14.04254356 -11 14 C-9.69139073 5.78675497 -9.69139073 5.78675497 -7.1875 2.9375 C-4.63247553 1.84248951 -2.75293162 1.77058903 0 2 C0 1.34 0 0.68 0 0 Z " fill="#312F2F" transform="translate(356,398)"/>
<path d="M0 0 C3.96 0 7.92 0 12 0 C12 8.91 12 17.82 12 27 C13.32 26.67 14.64 26.34 16 26 C15 30 15 30 14.4765625 31.63671875 C13.77831712 35.09932902 13.81566577 38.54533022 13.8125 42.0625 C13.80025391 42.78244141 13.78800781 43.50238281 13.77539062 44.24414062 C13.76480989 48.0426247 13.84244345 49.76366518 16 53 C16 54.32 16 55.64 16 57 C14.68 57 13.36 57 12 57 C12.33 59.64 12.66 62.28 13 65 C8.71 65 4.42 65 0 65 C0 63.68 0 62.36 0 61 C1.98 61 3.96 61 6 61 C6 42.19 6 23.38 6 4 C4.02 4 2.04 4 0 4 C0 2.68 0 1.36 0 0 Z " fill="#1D1D1D" transform="translate(479,382)"/>
<path d="M0 0 C4.29 0 8.58 0 13 0 C13 20.46 13 40.92 13 62 C14.98 62 16.96 62 19 62 C19 62.99 19 63.98 19 65 C12.73 65 6.46 65 0 65 C0 63.68 0 62.36 0 61 C2.31 61 4.62 61 7 61 C6.67 42.19 6.34 23.38 6 4 C4.02 4 2.04 4 0 4 C0 2.68 0 1.36 0 0 Z " fill="#111111" transform="translate(533,382)"/>
<path d="M0 0 C1.56033623 1.56033623 1.20707559 3.08947136 1.25 5.25 C1.158892 11.00802546 -0.70927792 13.51070529 -4.4375 17.8125 C-8.29676543 20.87463756 -12.52196577 20.70256617 -17.2734375 20.47265625 C-20 20 -20 20 -22.75 18.0625 C-24.42806971 13.95122922 -24.34350841 10.37973224 -24 6 C-15.73453187 2.01433832 -9.29840219 -0.36464322 0 0 Z " fill="#EEECEE" transform="translate(374,423)"/>
<path d="M0 0 C3.04441069 1.65429754 3.37858691 2.69926622 5 6 C5 8.97 5 11.94 5 15 C-4.24 15 -13.48 15 -23 15 C-22 7 -22 7 -19.75 4.125 C-13.75802203 -0.50516479 -7.38183848 -1.13174596 0 0 Z " fill="#E9E9E9" transform="translate(589,405)"/>
<path d="M0 0 C1.81242052 -0.02687279 3.62495233 -0.04633715 5.4375 -0.0625 C6.44683594 -0.07410156 7.45617187 -0.08570313 8.49609375 -0.09765625 C11 0 11 0 12 1 C12.04092937 3.33297433 12.04241723 5.66705225 12 8 C12.99 8.33 13.98 8.66 15 9 C14.68289063 10.03125 14.36578125 11.0625 14.0390625 12.125 C12.48870799 18.32641804 12.53617539 24.64028769 12.375 31 C12.33632813 32.25167969 12.29765625 33.50335938 12.2578125 34.79296875 C12.16410659 37.8618372 12.0783893 40.93070853 12 44 C14.64 44 17.28 44 20 44 C20 44.99 20 45.98 20 47 C13.07 47 6.14 47 -1 47 C-1 45.68 -1 44.36 -1 43 C1.97 43 4.94 43 8 43 C7.67 29.8 7.34 16.6 7 3 C4.69 3 2.38 3 0 3 C0 2.01 0 1.02 0 0 Z " fill="#0E0D0D" transform="translate(396,400)"/>
<path d="M0 0 C4.95 0 9.9 0 15 0 C15 2.31 15 4.62 15 7 C16.32 5.68 17.64 4.36 19 3 C19.66 3.33 20.32 3.66 21 4 C20.67 4.66 20.34 5.32 20 6 C20.53625 5.67 21.0725 5.34 21.625 5 C24.5929092 3.75035402 26.80799279 3.72243416 30 4 C30.66 4.66 31.32 5.32 32 6 C31.40832031 6.03738281 30.81664062 6.07476562 30.20703125 6.11328125 C23.51897325 6.56246026 23.51897325 6.56246026 18 10 C15.52608298 16.78399638 15.75832531 23.9498311 15.875 31.0625 C15.88853516 32.64708008 15.88853516 32.64708008 15.90234375 34.26367188 C15.9256833 36.84269253 15.95842225 39.4212199 16 42 C17.98 42.66 19.96 43.32 22 44 C22.042721 45.66611905 22.04063832 47.33382885 22 49 C21 50 21 50 18.95874023 50.11352539 C17.64691772 50.10567017 17.64691772 50.10567017 16.30859375 50.09765625 C15.36435547 50.09443359 14.42011719 50.09121094 13.44726562 50.08789062 C12.45404297 50.07951172 11.46082031 50.07113281 10.4375 50.0625 C9.44041016 50.05798828 8.44332031 50.05347656 7.41601562 50.04882812 C4.94395151 50.03700007 2.47200482 50.02051849 0 50 C0 49.34 0 48.68 0 48 C6.93 48 13.86 48 21 48 C21 47.01 21 46.02 21 45 C18.36 45 15.72 45 13 45 C12.94151517 40.66672416 12.90624084 36.33355115 12.875 32 C12.84986328 30.16888672 12.84986328 30.16888672 12.82421875 28.30078125 C12.78924271 21.83021331 13.03736236 16.18153587 15 10 C14.34 9.67 13.68 9.34 13 9 C12.59270772 6.67843403 12.25561323 4.3431213 12 2 C8.37 1.67 4.74 1.34 1 1 C1 1.99 1 2.98 1 4 C3.31 4 5.62 4 8 4 C9.63945963 7.27891925 9.12030178 10.90613534 9.09765625 14.5078125 C9.0962413 15.34843231 9.09482635 16.18905212 9.09336853 17.05514526 C9.08776237 19.74513275 9.07520886 22.43503759 9.0625 25.125 C9.05748579 26.94661338 9.05292275 28.76822807 9.04882812 30.58984375 C9.03779094 35.05992777 9.0205222 39.52994986 9 44 C8.34 44 7.68 44 7 44 C7 31.13 7 18.26 7 5 C4.69 5 2.38 5 0 5 C0 3.35 0 1.7 0 0 Z " fill="#585658" transform="translate(395,399)"/>
<path d="M0 0 C4.91560448 0.45726553 7.69453972 1.25961074 11 5 C13.93839605 11.58506999 15 16.71242473 15 24 C3.45 24 -8.1 24 -20 24 C-19.67 26.64 -19.34 29.28 -19 32 C-21 30 -21 30 -21.125 26.375 C-21.08375 25.26125 -21.0425 24.1475 -21 23 C-17.82212459 21.9407082 -15.57411057 21.88541061 -12.23828125 21.90234375 C-11.12001953 21.90556641 -10.00175781 21.90878906 -8.84960938 21.91210938 C-7.68236328 21.92048828 -6.51511719 21.92886719 -5.3125 21.9375 C-4.13365234 21.94201172 -2.95480469 21.94652344 -1.74023438 21.95117188 C1.17322789 21.96296727 4.08658863 21.9794273 7 22 C7 21.34 7 20.68 7 20 C-2.24 20 -11.48 20 -21 20 C-21 19.67 -21 19.34 -21 19 C-11.76 19 -2.52 19 7 19 C6.53319068 10.83528172 6.53319068 10.83528172 4.6875 6.9375 C0.25305336 3.74057336 -4.7161248 4.49745752 -10 5 C-11.34215816 5.29580459 -12.68117575 5.61322943 -14 6 C-13.67 5.01 -13.34 4.02 -13 3 C-9.04 3 -5.08 3 -1 3 C-0.67 2.01 -0.34 1.02 0 0 Z " fill="#2D2C2E" transform="translate(587,401)"/>
<path d="M0 0 C4.62 0 9.24 0 14 0 C15.36239076 2.72478152 15.11969958 4.86840855 15.11352539 7.91845703 C15.11344986 9.15959259 15.11337433 10.40072815 15.11329651 11.67947388 C15.1081895 13.03892049 15.1029735 14.39836669 15.09765625 15.7578125 C15.09579142 17.14500884 15.09436782 18.53220584 15.09336853 19.91940308 C15.08954848 23.57234512 15.07972255 27.22524748 15.06866455 30.87817383 C15.05843944 34.60497501 15.05386855 38.33178259 15.04882812 42.05859375 C15.03809983 49.37241394 15.02102954 56.68620141 15 64 C16.65 64 18.3 64 20 64 C20.33 65.65 20.66 67.3 21 69 C13.74 69 6.48 69 -1 69 C-1 67.02 -1 65.04 -1 63 C1.31 63 3.62 63 6 63 C6 44.85 6 26.7 6 8 C4.02 8 2.04 8 0 8 C-1.125 2.25 -1.125 2.25 0 0 Z M1 3 C1 4.32 1 5.64 1 7 C2.98 7 4.96 7 7 7 C7.33 25.81 7.66 44.62 8 64 C5.69 64 3.38 64 1 64 C1 65.32 1 66.64 1 68 C7.27 68 13.54 68 20 68 C20 67.01 20 66.02 20 65 C18.02 65 16.04 65 14 65 C14 44.54 14 24.08 14 3 C9.71 3 5.42 3 1 3 Z " fill="#9D9D9C" transform="translate(532,379)"/>
<path d="M0 0 C1.32 0 2.64 0 4 0 C4.14695312 0.98226563 4.14695312 0.98226563 4.296875 1.984375 C5.34536071 8.38375329 6.9727709 14.27938301 9.1953125 20.37109375 C10 23 10 23 10 27 C4.39 27 -1.22 27 -7 27 C-7 21.82999953 -6.28735596 20.39876146 -4 16 C-2.73658643 12.2097593 -1.89664686 8.5807268 -1.4375 4.625 C-1 1 -1 1 0 0 Z " fill="#EEEFEF" transform="translate(639,398)"/>
<path d="M0 0 C4.86479088 2.29971932 7.73361668 5.118559 10 10 C11.01315621 16.20121474 11.0034336 21.40448829 7.25 26.625 C4.24836488 30.21786628 1.66124524 31.75461345 -2.98828125 32.44140625 C-11.78202677 32.76174246 -11.78202677 32.76174246 -15.3359375 30.5390625 C-19.72011033 26.15488967 -22.30362836 22.44059134 -22.4375 16.125 C-22.33530709 10.46351274 -22.33530709 10.46351274 -19.875 7.0625 C-18.92625 6.381875 -17.9775 5.70125 -17 5 C-16.13375 4.071875 -15.2675 3.14375 -14.375 2.1875 C-10.1744255 -1.25131228 -5.12415579 -0.81711575 0 0 Z M-17.3125 8.0625 C-19.78705136 12.37005236 -19.88407997 16.14889451 -19 21 C-17.35808662 24.54341781 -15.21134404 27.0713029 -12.125 29.4375 C-7.19533888 30.7424103 -2.43076217 30.5651781 2 28 C6.22173739 24.06610834 7.85219601 20.9700159 8.203125 15.1796875 C7.78600343 10.70365223 5.18062866 8.03752216 1.9375 5.1875 C-5.28028384 0.763697 -11.45412675 2.8374644 -17.3125 8.0625 Z " fill="#424344" transform="translate(910,347)"/>
<path d="M0 0 C1.74216797 0.02707031 1.74216797 0.02707031 3.51953125 0.0546875 C4.39996094 0.07789063 5.28039062 0.10109375 6.1875 0.125 C5.72430089 4.84963088 5.08858294 8.29557052 2.1875 12.125 C1.5275 12.125 0.8675 12.125 0.1875 12.125 C-0.1425 13.115 -0.4725 14.105 -0.8125 15.125 C-5.68317653 15.60251731 -8.78459714 15.82397394 -12.9375 13 C-14.8125 10.125 -14.8125 10.125 -14.75 6.9375 C-13.64939817 3.63569451 -12.69620017 2.57391341 -9.61328125 1.0078125 C-6.27722945 -0.04371847 -3.49113896 -0.07052806 0 0 Z " fill="#EDEDED" transform="translate(772.8125,425.875)"/>
<path d="M0 0 C1.0725 0.103125 2.145 0.20625 3.25 0.3125 C2.12235662 5.38689519 0.90938147 9.42412041 -3.375 12.625 C-9.85713469 16.73845905 -17.37006827 16.15131191 -24.75 15.3125 C-27.23046875 14.28125 -27.23046875 14.28125 -28.75 13.3125 C-28.75 12.6525 -28.75 11.9925 -28.75 11.3125 C-29.74 10.9825 -30.73 10.6525 -31.75 10.3125 C-31.42 9.6525 -31.09 8.9925 -30.75 8.3125 C-29.7909375 9.0240625 -29.7909375 9.0240625 -28.8125 9.75 C-24.82818481 11.78281387 -21.16505926 12.0335529 -16.75 12.3125 C-16.75 11.6525 -16.75 10.9925 -16.75 10.3125 C-18.07 10.3125 -19.39 10.3125 -20.75 10.3125 C-20.75 9.6525 -20.75 8.9925 -20.75 8.3125 C-22.07 7.9825 -23.39 7.6525 -24.75 7.3125 C-24.75 6.3225 -24.75 5.3325 -24.75 4.3125 C-24.09 4.9725 -23.43 5.6325 -22.75 6.3125 C-20.21735493 6.59433325 -20.21735493 6.59433325 -17.375 6.5 C-15.94027344 6.49033203 -15.94027344 6.49033203 -14.4765625 6.48046875 C-12.04389181 6.33060508 -10.03308717 6.15283807 -7.75 5.3125 C-7.151875 4.466875 -6.55375 3.62125 -5.9375 2.75 C-3.75 0.3125 -3.75 0.3125 0 0 Z " fill="#383838" transform="translate(597.75,434.6875)"/>
<path d="M0 0 C5.61 0 11.22 0 17 0 C17.33 0.99 17.66 1.98 18 3 C20.00016466 4.20882096 20.00016466 4.20882096 22 5 C21.67 5.66 21.34 6.32 21 7 C19.68 7 18.36 7 17 7 C16.67 7.66 16.34 8.32 16 9 C15.01 8.34 14.02 7.68 13 7 C7.84544283 6.74227214 3.07996828 7.15333862 -2 8 C-2.309375 8.804375 -2.61875 9.60875 -2.9375 10.4375 C-4 13 -4 13 -5 14 C-6.99958364 14.04080783 -9.00045254 14.04254356 -11 14 C-9.69139073 5.78675497 -9.69139073 5.78675497 -7.1875 2.9375 C-4.63247553 1.84248951 -2.75293162 1.77058903 0 2 C0 1.34 0 0.68 0 0 Z " fill="#414141" transform="translate(356,398)"/>
<path d="M0 0 C1.98 0 3.96 0 6 0 C6 6.27 6 12.54 6 19 C0 19 0 19 -2 18 C-2.28875 17.195625 -2.5775 16.39125 -2.875 15.5625 C-4.22509768 12.48727752 -5.02639318 12.31188536 -8 11 C-9.35308313 9.68671343 -10.68870078 8.35500919 -12 7 C-15.48066935 5.25966533 -19.19461989 5.53563507 -23 6 C-25.89453715 7.09200825 -28.31031353 8.43509151 -31 10 C-29.80339334 6.41018002 -28.29742372 5.53834886 -25.02734375 3.79296875 C-19.27312782 1.54228314 -13.63741479 3.12086174 -8 5 C-7.67 6.32 -7.34 7.64 -7 9 C-4.83333333 8.16666667 -4.83333333 8.16666667 -4 6 C-2.68 6.66 -1.36 7.32 0 8 C0 5.36 0 2.72 0 0 Z " fill="#1F1F1F" transform="translate(327,384)"/>
<path d="M0 0 C2.1875 1.75 2.1875 1.75 4 4 C5.11375 5.0209375 5.11375 5.0209375 6.25 6.0625 C8 8 8 8 8 11 C0.41 11 -7.18 11 -15 11 C-15 9.35 -15 7.7 -15 6 C-14.01 5.67 -13.02 5.34 -12 5 C-12 4.34 -12 3.68 -12 3 C-8.06159085 -0.10298903 -4.93938307 -0.62864875 0 0 Z " fill="#EEEBED" transform="translate(866,407)"/>
<path d="M0 0 C1.98177517 2.14031718 2.25330748 3.82746924 2.5625 6.6875 C1.5725 6.6875 0.5825 6.6875 -0.4375 6.6875 C-0.9325 4.7075 -0.9325 4.7075 -1.4375 2.6875 C-10.05187429 1.25177095 -15.99655819 0.52439752 -23.4375 5.6875 C-23.7675 6.3475 -24.0975 7.0075 -24.4375 7.6875 C-25.0975 7.6875 -25.7575 7.6875 -26.4375 7.6875 C-26.4375 8.3475 -26.4375 9.0075 -26.4375 9.6875 C-27.22125 9.501875 -28.005 9.31625 -28.8125 9.125 C-31.40839775 8.42787734 -31.40839775 8.42787734 -33.4375 9.6875 C-32.94979958 5.46076301 -30.6036634 2.3723464 -27.4375 -0.3125 C-18.79219896 -4.74218758 -8.57091906 -4.61511026 0 0 Z " fill="#0F0F0F" transform="translate(320.4375,386.3125)"/>
<path d="M0 0 C1.40958984 -0.00193359 1.40958984 -0.00193359 2.84765625 -0.00390625 C3.83636719 -0.00003906 4.82507813 0.00382812 5.84375 0.0078125 C7.32681641 0.00201172 7.32681641 0.00201172 8.83984375 -0.00390625 C9.77957031 -0.00261719 10.71929687 -0.00132812 11.6875 0 C12.55568359 0.00112793 13.42386719 0.00225586 14.31835938 0.00341797 C16.34375 0.1328125 16.34375 0.1328125 17.34375 1.1328125 C17.44387401 3.33931906 17.4745618 5.54903636 17.4765625 7.7578125 C17.47799759 8.75095459 17.47799759 8.75095459 17.47946167 9.76416016 C17.48014326 11.16634211 17.47829042 12.5685272 17.47412109 13.97070312 C17.46877246 16.12376963 17.4740667 18.27662752 17.48046875 20.4296875 C17.47980796 21.78906296 17.47852679 23.1484383 17.4765625 24.5078125 C17.47543457 25.75304687 17.47430664 26.99828125 17.47314453 28.28125 C17.34375 31.1328125 17.34375 31.1328125 16.34375 32.1328125 C14.34416636 32.17362033 12.34329746 32.17535606 10.34375 32.1328125 C10.34375 29.8228125 10.34375 27.5128125 10.34375 25.1328125 C8.36375 26.1228125 6.38375 27.1128125 4.34375 28.1328125 C5.34375 25.1328125 5.34375 25.1328125 8.34375 23.1328125 C9.33375 23.1328125 10.32375 23.1328125 11.34375 23.1328125 C11.34375 25.7728125 11.34375 28.4128125 11.34375 31.1328125 C12.66375 31.1328125 13.98375 31.1328125 15.34375 31.1328125 C15.34375 21.5628125 15.34375 11.9928125 15.34375 2.1328125 C8.74375 2.1328125 2.14375 2.1328125 -4.65625 2.1328125 C-4.65625 3.1228125 -4.65625 4.1128125 -4.65625 5.1328125 C-3.04943359 5.11541016 -3.04943359 5.11541016 -1.41015625 5.09765625 C-0.01302257 5.08827951 1.38411299 5.07917919 2.78125 5.0703125 C3.48830078 5.06193359 4.19535156 5.05355469 4.92382812 5.04492188 C6.73068559 5.03627662 8.53762603 5.08061239 10.34375 5.1328125 C11.34375 6.1328125 11.34375 6.1328125 11.40625 9.6953125 C11.385625 10.8296875 11.365 11.9640625 11.34375 13.1328125 C10.35375 13.6278125 10.35375 13.6278125 9.34375 14.1328125 C9.34375 11.4928125 9.34375 8.8528125 9.34375 6.1328125 C4.39375 6.1328125 -0.55625 6.1328125 -5.65625 6.1328125 C-5.65625 0.00734851 -5.65625 0.00734851 0 0 Z " fill="#5E5F5F" transform="translate(316.65625,415.8671875)"/>
<path d="M0 0 C4.95 0 9.9 0 15 0 C15 8.91 15 17.82 15 27 C15.66 27.33 16.32 27.66 17 28 C16.01 28 15.02 28 14 28 C14 19.42 14 10.84 14 2 C9.71 2 5.42 2 1 2 C1 3.65 1 5.3 1 7 C2.98 7 4.96 7 7 7 C7 25.81 7 44.62 7 64 C5.02 64 3.04 64 1 64 C1 63.67 1 63.34 1 63 C2.65 63 4.3 63 6 63 C6 45.51 6 28.02 6 10 C4.35 10 2.7 10 1 10 C0 9 0 9 -0.09765625 6.93359375 C-0.06510417 4.62239583 -0.03255208 2.31119792 0 0 Z " fill="#BEBEBE" transform="translate(478,379)"/>
<path d="M0 0 C2 2 2 2 2.22705078 5.53173828 C2.22673363 7.04463331 2.21540633 8.55755088 2.1953125 10.0703125 C2.1924826 10.86654022 2.18965271 11.66276794 2.18673706 12.48312378 C2.1755264 15.03056763 2.15042062 17.57766211 2.125 20.125 C2.11497133 21.85025535 2.10584528 23.57551619 2.09765625 25.30078125 C2.07558422 29.53398914 2.04104867 33.7669353 2 38 C3.7015625 37.9690625 3.7015625 37.9690625 5.4375 37.9375 C9 38 9 38 10 39 C10 41.31 10 43.62 10 46 C5.05 46 0.1 46 -5 46 C-5 32.14 -5 18.28 -5 4 C-5.66 4 -6.32 4 -7 4 C-6.67 3.34 -6.34 2.68 -6 2 C-5.34 2.33 -4.68 2.66 -4 3 C-4 16.53 -4 30.06 -4 44 C-0.04 44 3.92 44 8 44 C8 42.68 8 41.36 8 40 C7.030625 40.020625 6.06125 40.04125 5.0625 40.0625 C2 40 2 40 1 39 C0.83976438 36.11747355 0.74045971 33.25621473 0.68359375 30.37109375 C0.66281265 29.50686295 0.64203156 28.64263214 0.62062073 27.75221252 C0.55502886 24.98072555 0.49619582 22.20914079 0.4375 19.4375 C0.39432392 17.56314077 0.35070994 15.68879157 0.30664062 13.81445312 C0.19933773 9.20973664 0.09809785 4.60492142 0 0 Z " fill="#818282" transform="translate(462,403)"/>
<path d="M0 0 C4.29 0 8.58 0 13 0 C13 8.58 13 17.16 13 26 C13.99 26 14.98 26 16 26 C16.04125 25.443125 16.0825 24.88625 16.125 24.3125 C17.15433083 21.59212567 18.50281573 19.80281915 20.76953125 17.97265625 C25.77077554 15.79172835 31.66245125 16.67097302 37 17 C37 17.66 37 18.32 37 19 C37.59167969 19.26039063 38.18335938 19.52078125 38.79296875 19.7890625 C41.14027546 21.0769653 42.55024768 22.37224178 44.3125 24.375 C44.84488281 24.96023438 45.37726562 25.54546875 45.92578125 26.1484375 C47 28 47 28 46.66796875 30.2265625 C46.44753906 30.81179688 46.22710938 31.39703125 46 32 C45.4225 30.9275 44.845 29.855 44.25 28.75 C42.47593568 25.68570709 40.85085817 23.18006801 38 21 C34.85518209 20.19684346 34.85518209 20.19684346 32 20 C31.67 20.66 31.34 21.32 31 22 C25.125 21.125 25.125 21.125 24 20 C21.40858714 21.1375562 21.40858714 21.1375562 19 23 C18.58219121 25.62694422 18.58219121 25.62694422 19 28 C16 29 16 29 12 28 C12 19.09 12 10.18 12 1 C8.04 1 4.08 1 0 1 C0 0.67 0 0.34 0 0 Z " fill="#555555" transform="translate(479,381)"/>
<path d="M0 0 C0.72703125 0.433125 0.72703125 0.433125 1.46875 0.875 C6.63640485 3.73708576 10.09739384 4.66642328 16 4 C19.40241824 2.6351132 19.40241824 2.6351132 22 1 C22 1.66 22 2.32 22 3 C21.0409375 3.433125 21.0409375 3.433125 20.0625 3.875 C17.84793921 4.82823451 17.84793921 4.82823451 17 7 C14.35139573 7.59355614 11.70802678 7.74209269 9 8 C10.96822886 9.96822886 14.34808709 9.66248381 17 10 C17 10.33 17 10.66 17 11 C11.30310639 11.29466691 8.01174654 11.00704792 3 8 C2.05125 7.443125 1.1025 6.88625 0.125 6.3125 C-0.57625 5.879375 -1.2775 5.44625 -2 5 C-1.979375 5.969375 -1.95875 6.93875 -1.9375 7.9375 C-2 11 -2 11 -3 12 C-5.35313555 12.07271741 -7.70833668 12.08370868 -10.0625 12.0625 C-11.35285156 12.05347656 -12.64320313 12.04445313 -13.97265625 12.03515625 C-14.97167969 12.02355469 -15.97070312 12.01195312 -17 12 C-17 10.02 -17 8.04 -17 6 C-16.67 7.32 -16.34 8.64 -16 10 C-11.71 10 -7.42 10 -3 10 C-3.33 7.36 -3.66 4.72 -4 2 C-2.68 2 -1.36 2 0 2 C0 1.34 0 0.68 0 0 Z " fill="#222423" transform="translate(495,437)"/>
<path d="M0 0 C0 0.33 0 0.66 0 1 C-0.59167969 1.14695312 -1.18335938 1.29390625 -1.79296875 1.4453125 C-7.4910573 3.06271447 -10.9636135 4.61286266 -14 10 C-14.92922079 15.10241774 -14.57380701 18.85238599 -12.25 23.5 C-8.92985426 27.18905083 -6.13542962 28.19393268 -1.25 28.625 C-0.45078125 28.69976562 0.3484375 28.77453125 1.171875 28.8515625 C1.77515625 28.90054687 2.3784375 28.94953125 3 29 C3 29.66 3 30.32 3 31 C-7.32097584 32.06768716 -7.32097584 32.06768716 -11.28515625 29.546875 C-15.670785 25.11468968 -18.3024744 21.49503142 -18.4375 15.125 C-18.37507279 10.8123201 -18.34817577 9.46109764 -15.6875 5.9375 C-14.800625 5.298125 -13.91375 4.65875 -13 4 C-12.484375 3.4225 -11.96875 2.845 -11.4375 2.25 C-8.15495381 -0.60438799 -4.14479791 -0.09419995 0 0 Z " fill="#313132" transform="translate(906,348)"/>
<path d="M0 0 C0.66 0.33 1.32 0.66 2 1 C1.83628906 1.74507813 1.67257812 2.49015625 1.50390625 3.2578125 C0.8017028 8.47262574 0.89543577 13.62020731 0.9375 18.875 C0.94201172 19.94492187 0.94652344 21.01484375 0.95117188 22.1171875 C0.96290251 24.74484986 0.97931772 27.37239538 1 30 C2.98 30.66 4.96 31.32 7 32 C7.042721 33.66611905 7.04063832 35.33382885 7 37 C6 38 6 38 3.95874023 38.11352539 C2.64691772 38.10567017 2.64691772 38.10567017 1.30859375 38.09765625 C0.36435547 38.09443359 -0.57988281 38.09121094 -1.55273438 38.08789062 C-2.54595703 38.07951172 -3.53917969 38.07113281 -4.5625 38.0625 C-5.55958984 38.05798828 -6.55667969 38.05347656 -7.58398438 38.04882812 C-10.05604849 38.03700007 -12.52799518 38.02051849 -15 38 C-15 37.34 -15 36.68 -15 36 C-8.07 36 -1.14 36 6 36 C6 35.01 6 34.02 6 33 C3.36 33 0.72 33 -2 33 C-2.05826088 28.6250563 -2.09368457 24.25021302 -2.125 19.875 C-2.14175781 18.6375 -2.15851563 17.4 -2.17578125 16.125 C-2.18222656 14.92617188 -2.18867188 13.72734375 -2.1953125 12.4921875 C-2.20578613 11.39245605 -2.21625977 10.29272461 -2.22705078 9.15966797 C-1.98673701 5.81543058 -1.18909337 3.12291305 0 0 Z " fill="#8A8787" transform="translate(410,411)"/>
<path d="M0 0 C2.13908818 2.60410735 3.57743146 4.61945167 4 8 C3.5625 10.25 3.5625 10.25 3 12 C3 11.01 3 10.02 3 9 C-1.26582343 10.61172289 -1.26582343 10.61172289 -3.90625 14.02734375 C-5 16 -5 16 -7.1015625 16.86328125 C-12.74460995 17.86784852 -17.35434417 18.04549182 -23 17 C-23 16.34 -23 15.68 -23 15 C-20.5899508 13.7949754 -18.81021258 13.82693982 -16.125 13.6875 C-12.09412242 13.33329565 -12.09412242 13.33329565 -8.6875 11.25 C-8.130625 10.5075 -7.57375 9.765 -7 9 C-6.13375 8.175 -5.2675 7.35 -4.375 6.5 C-2.31792949 4.33466262 -1.11194848 2.7293281 0 0 Z " fill="#0A090A" transform="translate(325,430)"/>
<path d="M0 0 C1.22419163 3.93795909 0.48320272 6.16112237 -1 10 C-1.66 10 -2.32 10 -3 10 C-2.979375 10.969375 -2.95875 11.93875 -2.9375 12.9375 C-3 16 -3 16 -4 17 C-4.1546875 18.4540625 -4.1546875 18.4540625 -4.3125 19.9375 C-4.84774881 24.17561763 -6.40912526 27.85101716 -8.0625 31.765625 C-9.07620833 34.10287673 -9.07620833 34.10287673 -10 37 C-10.66 37 -11.32 37 -12 37 C-12.33 39.31 -12.66 41.62 -13 44 C-15.475 44.495 -15.475 44.495 -18 45 C-18 48.3 -18 51.6 -18 55 C-13.38 55 -8.76 55 -4 55 C-4 55.33 -4 55.66 -4 56 C-8.95 56 -13.9 56 -19 56 C-20.18306728 53.63386544 -20.13354608 52.13219264 -20.125 49.5 C-20.12757813 48.7059375 -20.13015625 47.911875 -20.1328125 47.09375 C-20 45 -20 45 -19 43 C-17.35636866 42.27840576 -15.68949614 41.60648579 -14 41 C-13.87625 39.865625 -13.7525 38.73125 -13.625 37.5625 C-13.315625 35.7990625 -13.315625 35.7990625 -13 34 C-12.01 33.505 -12.01 33.505 -11 33 C-7.51832506 26.53000487 -6.20448533 19.49884848 -4.79296875 12.36328125 C-3.75030767 7.94096012 -2.09397799 4.0178867 0 0 Z " fill="#A2A3A4" transform="translate(629,393)"/>
<path d="M0 0 C1.82917969 0.00193359 1.82917969 0.00193359 3.6953125 0.00390625 C6.875 0.4375 6.875 0.4375 8.8046875 1.96484375 C9.15789062 2.45082031 9.51109375 2.93679688 9.875 3.4375 C9.545 4.0975 9.215 4.7575 8.875 5.4375 C8.50375 4.9425 8.1325 4.4475 7.75 3.9375 C5.12805607 1.83994486 3.13657528 2.22006165 -0.125 2.4375 C0.535 3.7575 1.195 5.0775 1.875 6.4375 C-0.11067708 6.40494792 -2.09635417 6.37239583 -4.08203125 6.33984375 C-6.32805461 6.35486783 -6.32805461 6.35486783 -9.125 7.4375 C-9.4971042 8.76053717 -9.83130173 10.09487935 -10.125 11.4375 C-11.115 11.9325 -11.115 11.9325 -12.125 12.4375 C-12.125 11.4475 -12.125 10.4575 -12.125 9.4375 C-13.775 9.1075 -15.425 8.7775 -17.125 8.4375 C-17.455 6.7875 -17.785 5.1375 -18.125 3.4375 C-17.465 3.4375 -16.805 3.4375 -16.125 3.4375 C-16.125 4.7575 -16.125 6.0775 -16.125 7.4375 C-14.805 7.4375 -13.485 7.4375 -12.125 7.4375 C-12.125 6.4475 -12.125 5.4575 -12.125 4.4375 C-8.30450075 0.42089147 -5.43745116 -0.08658362 0 0 Z " fill="#1E1E1E" transform="translate(452.125,397.5625)"/>
<path d="M0 0 C6.6 0 13.2 0 20 0 C20 3.3 20 6.6 20 10 C19.01 10 18.02 10 17 10 C17.33 13.3 17.66 16.6 18 20 C15.68490441 16.52735662 15.37417545 14.11592992 15 10 C15.33 9.34 15.66 8.68 16 8 C16.99 8 17.98 8 19 8 C19 5.69 19 3.38 19 1 C13.39 1 7.78 1 2 1 C2 3.64 2 6.28 2 9 C3.65 9.33 5.3 9.66 7 10 C7 12.64 7 15.28 7 18 C7.66 18 8.32 18 9 18 C9 19.32 9 20.64 9 22 C8.34 22 7.68 22 7 22 C5.79727181 19.59454362 5.89928528 18.05003047 5.9375 15.375 C5.95103516 14.14910156 5.95103516 14.14910156 5.96484375 12.8984375 C5.97644531 12.27195312 5.98804688 11.64546875 6 11 C5.195625 11.020625 4.39125 11.04125 3.5625 11.0625 C1 11 1 11 0 10 C0 6.7 0 3.4 0 0 Z " fill="#5F605E" transform="translate(670,399)"/>
<path d="M0 0 C8.28626692 -0.3655706 8.28626692 -0.3655706 11.5625 1.3125 C13 3 13 3 13 6 C12.46375 5.690625 11.9275 5.38125 11.375 5.0625 C8.6015043 3.82172561 5.99957163 3.4090325 3 3 C3 4.65 3 6.3 3 8 C5.64 8 8.28 8 11 8 C10.67 9.32 10.34 10.64 10 12 C9.67 11.67 9.34 11.34 9 11 C7.00041636 10.95919217 4.99954746 10.95745644 3 11 C2.67 12.65 2.34 14.3 2 16 C1.34 16 0.68 16 0 16 C0 10.72 0 5.44 0 0 Z " fill="#48484A" transform="translate(898,354)"/>
<path d="M0 0 C1.03125 0.165 2.0625 0.33 3.125 0.5 C2.65134425 4.76290179 0.20261678 6.71548958 -2.875 9.5 C-5.91025486 11.52350324 -7.06926202 11.82124018 -10.5625 12.125 C-11.37074219 12.19976562 -12.17898438 12.27453125 -13.01171875 12.3515625 C-13.93404297 12.42503906 -13.93404297 12.42503906 -14.875 12.5 C-14.545 11.51 -14.215 10.52 -13.875 9.5 C-13.25238281 9.35691406 -12.62976563 9.21382813 -11.98828125 9.06640625 C-9.09874965 8.29194769 -8.59744439 6.94560797 -7.0625 4.4375 C-4.36197637 0.56283566 -4.36197637 0.56283566 0 0 Z " fill="#191919" transform="translate(597.875,434.5)"/>
<path d="M0 0 C0 0.66 0 1.32 0 2 C-0.84304688 2.08636719 -1.68609375 2.17273438 -2.5546875 2.26171875 C-3.65039062 2.40222656 -4.74609375 2.54273438 -5.875 2.6875 C-6.96554687 2.81511719 -8.05609375 2.94273437 -9.1796875 3.07421875 C-12.19824775 3.70261535 -12.19824775 3.70261535 -13.2578125 6.39453125 C-13.50273437 7.25433594 -13.74765625 8.11414063 -14 9 C-14.99 10.485 -14.99 10.485 -16 12 C-19.125 12.1875 -19.125 12.1875 -22 12 C-20.62043995 7.97628318 -19.06458829 4.98394123 -16 2 C-10.51783187 0.08124116 -5.77261927 -0.20616497 0 0 Z " fill="#141413" transform="translate(367,400)"/>
<path d="M0 0 C0.33 1.32 0.66 2.64 1 4 C1.99 4 2.98 4 4 4 C4 4.66 4 5.32 4 6 C6.64 6 9.28 6 12 6 C12 6.99 12 7.98 12 9 C5.07 9 -1.86 9 -9 9 C-9 7.68 -9 6.36 -9 5 C-6.03 5 -3.06 5 0 5 C0 3.35 0 1.7 0 0 Z " fill="#131111" transform="translate(404,438)"/>
<path d="M0 0 C0.625 1.875 0.625 1.875 1 4 C0.34 4.66 -0.32 5.32 -1 6 C-0.01 6.66 0.98 7.32 2 8 C0.68 8 -0.64 8 -2 8 C-2.433125 8.8971875 -2.433125 8.8971875 -2.875 9.8125 C-5.43173835 14.78393568 -5.43173835 14.78393568 -7.77734375 15.67578125 C-10.39393685 16.05746355 -12.91773226 16.16950838 -15.5625 16.1875 C-16.51253906 16.20167969 -17.46257812 16.21585937 -18.44140625 16.23046875 C-21 16 -21 16 -24 14 C-18.39 14 -12.78 14 -7 14 C-7 13.01 -7 12.02 -7 11 C-8.258125 11.20625 -9.51625 11.4125 -10.8125 11.625 C-14.4014758 12.21335669 -14.75073878 12.16617415 -18 10 C-17.35933594 9.99742187 -16.71867187 9.99484375 -16.05859375 9.9921875 C-10.05062664 9.72357496 -6.68391418 8.6969361 -2.27734375 4.5703125 C-0.77410486 2.91119687 -0.77410486 2.91119687 0 0 Z " fill="#525053" transform="translate(374,433)"/>
<path d="M0 0 C2.02558881 3.34939881 2.21738987 5.86962551 2.125 9.75 C2.10695313 10.73484375 2.08890625 11.7196875 2.0703125 12.734375 C2.04710937 13.48203125 2.02390625 14.2296875 2 15 C1.67 15 1.34 15 1 15 C0.67 12.03 0.34 9.06 0 6 C-1.32 5.67 -2.64 5.34 -4 5 C-4 4.34 -4 3.68 -4 3 C-14.395 3.99 -14.395 3.99 -25 5 C-17.55560227 -0.5832983 -9.0375797 -0.30927079 0 0 Z " fill="#6F6D6D" transform="translate(374,418)"/>
<path d="M0 0 C0 0.33 0 0.66 0 1 C-2.97 1.66 -5.94 2.32 -9 3 C-9 8.61 -9 14.22 -9 20 C-8.34 20 -7.68 20 -7 20 C-7 18.35 -7 16.7 -7 15 C-6.67 15 -6.34 15 -6 15 C-6 16.98 -6 18.96 -6 21 C-7.65 20.67 -9.3 20.34 -11 20 C-11.33 15.71 -11.66 11.42 -12 7 C-14.20914 10.31371 -14.22481553 11.3446021 -14.125 15.1875 C-14.10695313 16.08855469 -14.08890625 16.98960937 -14.0703125 17.91796875 C-14.04710937 18.60503906 -14.02390625 19.29210937 -14 20 C-16.43933105 17.56066895 -16.37608173 16.68410972 -16.5 13.3125 C-16.42006659 8.2984953 -15.00982182 5.84981302 -11.60546875 2.27734375 C-8.04856915 -0.55259827 -4.33474838 -0.08178771 0 0 Z " fill="#BBBABB" transform="translate(907,350)"/>
<path d="M0 0 C1.32 0.33 2.64 0.66 4 1 C4 3.31 4 5.62 4 8 C6.97 8.33 9.94 8.66 13 9 C13 9.99 13 10.98 13 12 C9.04 12 5.08 12 1 12 C1 9.69 1 7.38 1 5 C-0.32 4.67 -1.64 4.34 -3 4 C-2.01 2.68 -1.02 1.36 0 0 Z " fill="#090709" transform="translate(375,435)"/>
<path d="M0 0 C5.41538462 -0.36923077 5.41538462 -0.36923077 8.375 1.5 C8.91125 1.995 9.4475 2.49 10 3 C10.33 2.01 10.66 1.02 11 0 C11 1.32 11 2.64 11 4 C10.34 4 9.68 4 9 4 C9.33 4.9075 9.66 5.815 10 6.75 C11 10 11 10 11 14 C9.35 13.67 7.7 13.34 6 13 C5.79913557 9.28400809 5.8480563 8.22791555 8 5 C5.36 5 2.72 5 0 5 C0 3.35 0 1.7 0 0 Z " fill="#7E7E80" transform="translate(901,357)"/>
<path d="M0 0 C0.66 0 1.32 0 2 0 C2.02465288 4.68139254 2.04283739 9.36274759 2.05493164 14.04418945 C2.05997157 15.63794614 2.0668035 17.23169819 2.07543945 18.82543945 C2.08751999 21.11150253 2.09323155 23.39750467 2.09765625 25.68359375 C2.10281754 26.40026718 2.10797882 27.11694061 2.11329651 27.85533142 C2.11349263 29.57063672 2.06192007 31.28581266 2 33 C1 34 1 34 -2.4375 34.1875 C-6 34 -6 34 -8 32 C-8.625 29.875 -8.625 29.875 -9 28 C-10.98 28.99 -10.98 28.99 -13 30 C-11.37660195 28.29115995 -9.70680947 26.62553283 -8 25 C-7.34 25 -6.68 25 -6 25 C-6 27.31 -6 29.62 -6 32 C-4.02 31.67 -2.04 31.34 0 31 C0 20.77 0 10.54 0 0 Z " fill="#D1D1D2" transform="translate(333,416)"/>
<path d="M0 0 C1.32 0 2.64 0 4 0 C4 2.31 4 4.62 4 7 C8.29 7 12.58 7 17 7 C17 5.35 17 3.7 17 2 C17.12375 2.639375 17.2475 3.27875 17.375 3.9375 C17.58125 4.618125 17.7875 5.29875 18 6 C18.66 6.33 19.32 6.66 20 7 C19.67 7.66 19.34 8.32 19 9 C13.39 9 7.78 9 2 9 C2 7.02 2 5.04 2 3 C0.35 3.66 -1.3 4.32 -3 5 C-1.75 2.5 -1.75 2.5 0 0 Z " fill="#D1CDCF" transform="translate(372,441)"/>
<path d="M0 0 C11.55 0 23.1 0 35 0 C35 0.33 35 0.66 35 1 C18.665 1.495 18.665 1.495 2 2 C2 4.31 2 6.62 2 9 C2.66 9 3.32 9 4 9 C4.33 10.65 4.66 12.3 5 14 C4.34 14 3.68 14 3 14 C1 11 1 11 0 0 Z " fill="#A8A3A7" transform="translate(567,425)"/>
<path d="M0 0 C2.33294775 -0.04241723 4.66702567 -0.04092937 7 0 C8 1 8 1 8.11352539 2.94946289 C8.10828857 3.7821167 8.10305176 4.61477051 8.09765625 5.47265625 C8.09443359 6.37177734 8.09121094 7.27089844 8.08789062 8.19726562 C8.07951172 9.14279297 8.07113281 10.08832031 8.0625 11.0625 C8.05798828 12.01189453 8.05347656 12.96128906 8.04882812 13.93945312 C8.0370011 16.29303065 8.02052025 18.64648477 8 21 C7.67 21 7.34 21 7 21 C7 14.73 7 8.46 7 2 C5.02 2 3.04 2 1 2 C1 4.64 1 7.28 1 10 C-0.8125 9.8125 -0.8125 9.8125 -3 9 C-4.75 6.4375 -4.75 6.4375 -6 4 C-3.525 4.495 -3.525 4.495 -1 5 C-0.67 3.35 -0.34 1.7 0 0 Z " fill="#B4B4B4" transform="translate(326,382)"/>
<path d="M0 0 C0.33 0 0.66 0 1 0 C1 8.91 1 17.82 1 27 C2.65 27 4.3 27 6 27 C6 27.66 6 28.32 6 29 C4.00045254 29.04254356 1.99958364 29.04080783 0 29 C-1.73599196 27.26400804 -1.13021016 24.89938346 -1.1328125 22.5390625 C-1.13410156 21.42789062 -1.13539063 20.31671875 -1.13671875 19.171875 C-1.13285156 18.00140625 -1.12898438 16.8309375 -1.125 15.625 C-1.13080078 13.88089844 -1.13080078 13.88089844 -1.13671875 12.1015625 C-1.13542969 10.9878125 -1.13414062 9.8740625 -1.1328125 8.7265625 C-1.13168457 7.70127441 -1.13055664 6.67598633 -1.12939453 5.61962891 C-1 3 -1 3 0 0 Z " fill="#D4D0D4" transform="translate(438,413)"/>
<path d="M0 0 C1.48831242 0.00667405 2.97660807 0.01863442 4.46484375 0.03515625 C5.22345703 0.03966797 5.98207031 0.04417969 6.76367188 0.04882812 C8.64326246 0.06064945 10.52281274 0.07858547 12.40234375 0.09765625 C12.40234375 0.75765625 12.40234375 1.41765625 12.40234375 2.09765625 C14.71234375 2.42765625 17.02234375 2.75765625 19.40234375 3.09765625 C19.73234375 4.74765625 20.06234375 6.39765625 20.40234375 8.09765625 C19.41234375 8.09765625 18.42234375 8.09765625 17.40234375 8.09765625 C17.07234375 6.77765625 16.74234375 5.45765625 16.40234375 4.09765625 C10.16786459 3.05857639 3.53346217 2.05395011 -2.59765625 4.09765625 C-2.59765625 3.43765625 -2.59765625 2.77765625 -2.59765625 2.09765625 C-3.25765625 1.76765625 -3.91765625 1.43765625 -4.59765625 1.09765625 C-3.59765625 0.09765625 -3.59765625 0.09765625 0 0 Z " fill="#080808" transform="translate(302.59765625,384.90234375)"/>
<path d="M0 0 C0.89847656 0.00257813 1.79695313 0.00515625 2.72265625 0.0078125 C3.61855469 0.00523437 4.51445312 0.00265625 5.4375 0 C7.78515625 0.1328125 7.78515625 0.1328125 9.78515625 1.1328125 C9.78515625 1.7928125 9.78515625 2.4528125 9.78515625 3.1328125 C11.76515625 3.1328125 13.74515625 3.1328125 15.78515625 3.1328125 C16.11515625 4.1228125 16.44515625 5.1128125 16.78515625 6.1328125 C15.8415625 5.91625 15.8415625 5.91625 14.87890625 5.6953125 C5.93887894 3.7565114 -1.32953713 3.82921449 -10.21484375 6.1328125 C-9.88484375 5.1428125 -9.55484375 4.1528125 -9.21484375 3.1328125 C-6.21484375 2.0078125 -6.21484375 2.0078125 -3.21484375 1.1328125 C-2.21484375 0.1328125 -2.21484375 0.1328125 0 0 Z " fill="#B5B5B5" transform="translate(303.21484375,379.8671875)"/>
<path d="M0 0 C4.875 1.875 4.875 1.875 6 3 C8.73543076 3.26672673 11.44541315 3.47000257 14.1875 3.625 C14.94353516 3.6765625 15.69957031 3.728125 16.47851562 3.78125 C20.82305874 4.03747631 24.70933705 3.91698379 29 3 C28.67 3.66 28.34 4.32 28 5 C27.01 5 26.02 5 25 5 C25 5.66 25 6.32 25 7 C19.39 7 13.78 7 8 7 C8 6.34 8 5.68 8 5 C7.13375 4.7834375 7.13375 4.7834375 6.25 4.5625 C4.16666667 4.04166667 2.08333333 3.52083333 0 3 C0 2.01 0 1.02 0 0 Z " fill="#8C8D8D" transform="translate(846,443)"/>
<path d="M0 0 C0.33 0 0.66 0 1 0 C1 8.58 1 17.16 1 26 C0.34 26 -0.32 26 -1 26 C-3.54090517 17.60484933 -2.25145183 8.30222861 0 0 Z " fill="#030203" transform="translate(406,416)"/>
<path d="M0 0 C0.66 0 1.32 0 2 0 C4 7.625 4 7.625 4 11 C4.66 11 5.32 11 6 11 C6.27714844 11.99902344 6.55429687 12.99804688 6.83984375 14.02734375 C7.20555549 15.33077791 7.57145038 16.63416069 7.9375 17.9375 C8.11990234 18.59685547 8.30230469 19.25621094 8.49023438 19.93554688 C9.22596101 23.23821173 9.22596101 23.23821173 11 26 C11.04063832 27.66617115 11.042721 29.33388095 11 31 C12.32 31.33 13.64 31.66 15 32 C13.35 32 11.7 32 10 32 C6.04513903 22.63120315 6.04513903 22.63120315 4.9375 17.8125 C4.10800756 13.96964918 4.10800756 13.96964918 2.4375 10.4375 C0.95861208 6.9010289 0.38757574 3.7982423 0 0 Z " fill="#ABACA9" transform="translate(656,406)"/>
<path d="M0 0 C3.70946893 3.79994378 3.54286799 7.4814126 3.5625 12.625 C2.9025 12.625 2.2425 12.625 1.5625 12.625 C1.5625 9.655 1.5625 6.685 1.5625 3.625 C-2.46739556 1.61005222 -4.19536889 1.3535399 -8.5625 1.375 C-9.61695313 1.36984375 -10.67140625 1.3646875 -11.7578125 1.359375 C-14.58925355 1.35414832 -14.58925355 1.35414832 -16.4375 3.625 C-17.4275 3.295 -18.4175 2.965 -19.4375 2.625 C-14.77416346 -3.0200916 -6.29624185 -2.51849674 0 0 Z " fill="#B4B3B3" transform="translate(372.4375,405.375)"/>
<path d="M0 0 C0.33 0 0.66 0 1 0 C1.06058594 0.97582031 1.12117187 1.95164062 1.18359375 2.95703125 C1.26738281 4.22933594 1.35117187 5.50164062 1.4375 6.8125 C1.51871094 8.07707031 1.59992187 9.34164063 1.68359375 10.64453125 C1.87184547 13.99181893 1.87184547 13.99181893 3 17 C0.5625 16.25 0.5625 16.25 -2 15 C-3.62060565 11.63412672 -3.26112033 7.65568465 -3 4 C-1.5625 1.5625 -1.5625 1.5625 0 0 Z " fill="#FBFBFA" transform="translate(895,356)"/>
<path d="M0 0 C2.13908818 2.60410735 3.57743146 4.61945167 4 8 C3.5625 10.25 3.5625 10.25 3 12 C3 11.01 3 10.02 3 9 C2.071875 9.350625 1.14375 9.70125 0.1875 10.0625 C-3 11 -3 11 -6 10 C-6 10.66 -6 11.32 -6 12 C-7.32 11.67 -8.64 11.34 -10 11 C-8.906875 10.29875 -7.81375 9.5975 -6.6875 8.875 C-3.19806547 6.4097922 -1.58916184 4.01964466 0 0 Z " fill="#222224" transform="translate(325,430)"/>
<path d="M0 0 C0.33 0.45375 0.66 0.9075 1 1.375 C-1.97 0.88 -1.97 0.88 -5 0.375 C-5 -0.285 -5 -0.945 -5 -1.625 C-5.969375 -1.46 -6.93875 -1.295 -7.9375 -1.125 C-12.29487763 -0.49103727 -16.60630704 -0.5353328 -21 -0.625 C-20.67 0.035 -20.34 0.695 -20 1.375 C-23 1.375 -26 1.375 -29 1.375 C-21.14098472 -4.29080171 -8.27485833 -6.72332239 0 0 Z " fill="#262626" transform="translate(320,386.625)"/>
<path d="M0 0 C0.33 1.65 0.66 3.3 1 5 C1.66 5 2.32 5 3 5 C3 5.66 3 6.32 3 7 C-0.36143418 5.87952194 -1.57528834 4.50292817 -4 2 C-7.48066935 0.25966533 -11.19461989 0.53563507 -15 1 C-17.89453715 2.09200825 -20.31031353 3.43509151 -23 5 C-21.80339334 1.41018002 -20.29742372 0.53834886 -17.02734375 -1.20703125 C-11.27312782 -3.45771686 -5.63741479 -1.87913826 0 0 Z " fill="#717171" transform="translate(319,389)"/>
<path d="M0 0 C0.33 0.66 0.66 1.32 1 2 C-5.14854538 7.73864236 -10.36497142 8.55527443 -18.4140625 8.48046875 C-22.05913587 8.34599031 -24.89754058 7.97791757 -28 6 C-28 5.34 -28 4.68 -28 4 C-28.99 3.67 -29.98 3.34 -31 3 C-30.67 2.34 -30.34 1.68 -30 1 C-29.46632813 1.3609375 -28.93265625 1.721875 -28.3828125 2.09375 C-22.46964169 5.77669376 -17.92690907 6.91464468 -11 6 C-6.79700944 4.85372985 -3.55719317 2.48176268 0 0 Z " fill="#A8A7A9" transform="translate(597,442)"/>
<path d="M0 0 C0.66 0 1.32 0 2 0 C2 3.63 2 7.26 2 11 C-0.60319765 12.30159883 -3.06555701 12.59254569 -5.9375 13.0625 C-6.99839844 13.23910156 -8.05929687 13.41570312 -9.15234375 13.59765625 C-12 14 -12 14 -15 14 C-12.65122581 11.49464087 -10.9088213 10.09435091 -7.44140625 9.734375 C-4.95939768 9.74845732 -2.47852601 9.86781195 0 10 C0 6.7 0 3.4 0 0 Z " fill="#B8B6B5" transform="translate(835,399)"/>
<path d="M0 0 C0 3 0 3 -1 6 C-1.08266486 7.91906917 -1.10740663 9.84089474 -1.09765625 11.76171875 C-1.09443359 12.87998047 -1.09121094 13.99824219 -1.08789062 15.15039062 C-1.07951172 16.31763672 -1.07113281 17.48488281 -1.0625 18.6875 C-1.05573242 20.45577148 -1.05573242 20.45577148 -1.04882812 22.25976562 C-1.03703273 25.17322789 -1.0205727 28.08658863 -1 31 C0.98 31.33 2.96 31.66 5 32 C5 32.66 5 33.32 5 34 C2.66705225 34.04241723 0.33297433 34.04092937 -2 34 C-4.74811708 31.25188292 -3.23537149 22.95101427 -3.25 19.25 C-3.270625 17.9609375 -3.29125 16.671875 -3.3125 15.34375 C-3.31765625 14.10109375 -3.3228125 12.8584375 -3.328125 11.578125 C-3.3374707 10.43762695 -3.34681641 9.29712891 -3.35644531 8.12207031 C-2.96421128 4.68653008 -1.9808077 2.79666512 0 0 Z " fill="#767375" transform="translate(439,410)"/>
<path d="M0 0 C10.2 -0.4 10.2 -0.4 14 2 C16.62509697 4.46238435 19.12602865 6.915513 21 10 C20.6953125 12.2578125 20.6953125 12.2578125 20 14 C19.4225 12.9275 18.845 11.855 18.25 10.75 C16.47593568 7.68570709 14.85085817 5.18006801 12 3 C8.85518209 2.19684346 8.85518209 2.19684346 6 2 C5.67 2.66 5.34 3.32 5 4 C2.03 3.505 2.03 3.505 -1 3 C-0.67 2.01 -0.34 1.02 0 0 Z " fill="#4F4E4F" transform="translate(505,399)"/>
<path d="M0 0 C2.0625 0.4375 2.0625 0.4375 4 1 C3.67 1.66 3.34 2.32 3 3 C2.34 2.67 1.68 2.34 1 2 C1.020625 2.969375 1.04125 3.93875 1.0625 4.9375 C1 8 1 8 0 9 C-2.35313555 9.07271741 -4.70833668 9.08370868 -7.0625 9.0625 C-8.35285156 9.05347656 -9.64320313 9.04445313 -10.97265625 9.03515625 C-11.97167969 9.02355469 -12.97070312 9.01195312 -14 9 C-14 7.02 -14 5.04 -14 3 C-13.67 4.32 -13.34 5.64 -13 7 C-8.71 7 -4.42 7 0 7 C-0.33 5.02 -0.66 3.04 -1 1 C-0.67 0.67 -0.34 0.34 0 0 Z " fill="#868685" transform="translate(492,440)"/>
<path d="M0 0 C1.60294922 0.01353516 1.60294922 0.01353516 3.23828125 0.02734375 C4.04652344 0.03894531 4.85476563 0.05054688 5.6875 0.0625 C5.6875 0.7225 5.6875 1.3825 5.6875 2.0625 C4.58341797 2.35253906 4.58341797 2.35253906 3.45703125 2.6484375 C2.48121094 2.90882813 1.50539063 3.16921875 0.5 3.4375 C-0.46292969 3.69273437 -1.42585938 3.94796875 -2.41796875 4.2109375 C-5.13460207 5.01016296 -7.70387175 5.9656362 -10.3125 7.0625 C-10.3125 6.0725 -10.3125 5.0825 -10.3125 4.0625 C-8.9925 4.0625 -7.6725 4.0625 -6.3125 4.0625 C-6.3125 3.4025 -6.3125 2.7425 -6.3125 2.0625 C-7.9625 2.0625 -9.6125 2.0625 -11.3125 2.0625 C-11.3125 1.7325 -11.3125 1.4025 -11.3125 1.0625 C-7.47525828 0.15836327 -3.93747726 -0.04326898 0 0 Z " fill="#222122" transform="translate(364.3125,420.9375)"/>
<path d="M0 0 C0 0.33 0 0.66 0 1 C-0.88751953 1.22042969 -0.88751953 1.22042969 -1.79296875 1.4453125 C-6.46119909 2.7703893 -10.0717513 4.0212216 -13.0703125 8.10546875 C-14.90509633 11.84441899 -15.45750875 15.90297656 -16 20 C-16.33 20 -16.66 20 -17 20 C-17.3890785 8.86803185 -17.3890785 8.86803185 -15 5 C-10.05955911 0.31958232 -6.63261071 -0.15074115 0 0 Z " fill="#2C2B29" transform="translate(906,348)"/>
<path d="M0 0 C0.4846875 0.28875 0.969375 0.5775 1.46875 0.875 C8.17739278 4.590556 13.47484243 4.88128939 21 3 C19.88671875 4.984375 19.88671875 4.984375 18 7 C15.08203125 7.390625 15.08203125 7.390625 11.8125 7.25 C10.72582031 7.21390625 9.63914062 7.1778125 8.51953125 7.140625 C7.68808594 7.09421875 6.85664063 7.0478125 6 7 C6 6.34 6 5.68 6 5 C3.03 4.505 3.03 4.505 0 4 C0 2.68 0 1.36 0 0 Z " fill="#A3A3A3" transform="translate(496,443)"/>
<path d="M0 0 C5.61 0 11.22 0 17 0 C17.33 0.99 17.66 1.98 18 3 C17.45859375 2.84144531 16.9171875 2.68289063 16.359375 2.51953125 C9.20796276 0.94479975 2.0122189 1.11787231 -4.375 4.84375 C-6.50257231 6.35759953 -8.30176334 8.0187239 -10 10 C-9.67372714 6.98197607 -9.38918764 5.40308719 -7.25 3.1875 C-4.62847443 1.80391706 -2.92325122 1.75639573 0 2 C0 1.34 0 0.68 0 0 Z " fill="#797978" transform="translate(356,398)"/>
<path d="M0 0 C0.33 1.32 0.66 2.64 1 4 C5.29 4 9.58 4 14 4 C14.33 2.68 14.66 1.36 15 0 C15.33 1.98 15.66 3.96 16 6 C10.39 6 4.78 6 -1 6 C-1 1 -1 1 0 0 Z " fill="#BDBEBE" transform="translate(633,419)"/>
<path d="M0 0 C0.66 0 1.32 0 2 0 C1.88601335 1.62580966 1.75844341 3.25067157 1.625 4.875 C1.55539062 5.77992188 1.48578125 6.68484375 1.4140625 7.6171875 C1 10 1 10 -1 12 C-4.0390625 12.1953125 -4.0390625 12.1953125 -7.625 12.125 C-8.81351563 12.10695313 -10.00203125 12.08890625 -11.2265625 12.0703125 C-12.14179687 12.04710937 -13.05703125 12.02390625 -14 12 C-14 11.01 -14 10.02 -14 9 C-10.04 9 -6.08 9 -2 9 C-1.34 6.03 -0.68 3.06 0 0 Z " fill="#CFC8CC" transform="translate(730,438)"/>
<path d="M0 0 C4.29 0 8.58 0 13 0 C12.67 0.66 12.34 1.32 12 2 C8.37 1.67 4.74 1.34 1 1 C1.061875 2.794375 1.061875 2.794375 1.125 4.625 C1.125 8.46939182 0.35718257 11.38084647 -1 15 C-1.71481423 17.65640422 -2.35444177 20.32554447 -3 23 C-3.33 23 -3.66 23 -4 23 C-4.30072452 17.48671715 -3.73695019 13.42743575 -1.75390625 8.2734375 C-0.74652625 5.43150129 -0.74652625 5.43150129 0 0 Z " fill="#818381" transform="translate(700,399)"/>
<path d="M0 0 C1.12148438 0.00322266 2.24296875 0.00644531 3.3984375 0.00976562 C4.5740625 0.01814453 5.7496875 0.02652344 6.9609375 0.03515625 C8.14429688 0.03966797 9.32765625 0.04417969 10.546875 0.04882812 C13.47661257 0.06064158 16.40625022 0.07711367 19.3359375 0.09765625 C19.0059375 1.41765625 18.6759375 2.73765625 18.3359375 4.09765625 C18.3359375 3.10765625 18.3359375 2.11765625 18.3359375 1.09765625 C10.7459375 1.09765625 3.1559375 1.09765625 -4.6640625 1.09765625 C-4.9940625 3.07765625 -5.3240625 5.05765625 -5.6640625 7.09765625 C-6.6540625 7.59265625 -6.6540625 7.59265625 -7.6640625 8.09765625 C-7.6640625 5.78765625 -7.6640625 3.47765625 -7.6640625 1.09765625 C-5.00228029 -0.23323485 -2.97666854 -0.01503368 0 0 Z " fill="#999A9B" transform="translate(634.6640625,433.90234375)"/>
<path d="M0 0 C0.66 0.33 1.32 0.66 2 1 C1.67 2.32 1.34 3.64 1 5 C0.34 5 -0.32 5 -1 5 C-0.91262714 8.0429859 -0.80569374 11.08318366 -0.6875 14.125 C-0.66494141 14.9809375 -0.64238281 15.836875 -0.61914062 16.71875 C-0.3985165 21.93350212 0.41909879 25.35871548 3 30 C2.67 30.66 2.34 31.32 2 32 C-0.59257715 29.71484306 -1.88439491 27.83416394 -2.36230469 24.38574219 C-2.46616254 21.2072805 -2.44648719 18.05429892 -2.375 14.875 C-2.37371094 13.77800781 -2.37242187 12.68101562 -2.37109375 11.55078125 C-2.28132798 3.42199197 -2.28132798 3.42199197 0 0 Z " fill="#A3A3A2" transform="translate(561,409)"/>
<path d="M0 0 C0.66 0.33 1.32 0.66 2 1 C0.40112446 2.48488441 -1.20428905 3.96273145 -2.8125 5.4375 C-3.70582031 6.26121094 -4.59914063 7.08492188 -5.51953125 7.93359375 C-8 10 -8 10 -11 11 C-11.3721042 12.32303717 -11.70630173 13.65737935 -12 15 C-12.99 15.495 -12.99 15.495 -14 16 C-13.34 14.02 -12.68 12.04 -12 10 C-11.34 10 -10.68 10 -10 10 C-9.95875 9.443125 -9.9175 8.88625 -9.875 8.3125 C-8.53375322 4.76777636 -5.99075278 3.21315705 -3 1 C-2.01 0.67 -1.02 0.34 0 0 Z " fill="#555454" transform="translate(853,399)"/>
<path d="M0 0 C1.13050781 -0.01675781 2.26101563 -0.03351563 3.42578125 -0.05078125 C6.97015865 0.34398174 8.87830122 1.14630732 11.6875 3.3125 C11.6875 3.9725 11.6875 4.6325 11.6875 5.3125 C12.3475 5.3125 13.0075 5.3125 13.6875 5.3125 C13.6875 5.9725 13.6875 6.6325 13.6875 7.3125 C12.6975 7.3125 11.7075 7.3125 10.6875 7.3125 C10.6875 6.3225 10.6875 5.3325 10.6875 4.3125 C6.588139 3.3797582 2.56706712 3.02424738 -1.625 2.75 C-2.87925781 2.66621094 -4.13351562 2.58242188 -5.42578125 2.49609375 C-6.85470703 2.40521484 -6.85470703 2.40521484 -8.3125 2.3125 C-5.55375965 -0.44624035 -3.84573529 0.01306592 0 0 Z " fill="#9E9A99" transform="translate(864.3125,396.6875)"/>
<path d="M0 0 C5.08073659 0.03959016 7.93200241 0.83000217 11.8125 4.3125 C12.8025 5.7975 12.8025 5.7975 13.8125 7.3125 C13.235 7.003125 12.6575 6.69375 12.0625 6.375 C7.80217882 4.36318167 3.57837514 4.05954238 -1.06640625 3.69140625 C-3.1875 3.3125 -3.1875 3.3125 -6.1875 1.3125 C-4.47957001 -0.39542999 -2.33206519 0.05979654 0 0 Z " fill="#767575" transform="translate(904.1875,346.6875)"/>
<path d="M0 0 C1.37432457 3.81756824 0.67975039 7.07255329 0 11 C-0.66 11 -1.32 11 -2 11 C-1.67 16.61 -1.34 22.22 -1 28 C-3.79063998 25.20936002 -3.2892625 23.22546988 -3.32226562 19.41210938 C-3.31743164 18.12530273 -3.31743164 18.12530273 -3.3125 16.8125 C-3.32861328 15.97396484 -3.34472656 15.13542969 -3.36132812 14.27148438 C-3.36564103 8.74665585 -2.52410699 4.92167563 0 0 Z " fill="#5E5E5E" transform="translate(283,399)"/>
<path d="M0 0 C0.33 0 0.66 0 1 0 C1.33 2.64 1.66 5.28 2 8 C4.475 8.99 4.475 8.99 7 10 C7 12.64 7 15.28 7 18 C7.66 18 8.32 18 9 18 C9 19.32 9 20.64 9 22 C8.34 22 7.68 22 7 22 C5.79727181 19.59454362 5.89928528 18.05003047 5.9375 15.375 C5.95103516 14.14910156 5.95103516 14.14910156 5.96484375 12.8984375 C5.97644531 12.27195312 5.98804688 11.64546875 6 11 C5.195625 11.020625 4.39125 11.04125 3.5625 11.0625 C1 11 1 11 0 10 C-0.07205511 8.31391034 -0.08386068 6.62499341 -0.0625 4.9375 C-0.05347656 4.01839844 -0.04445313 3.09929687 -0.03515625 2.15234375 C-0.02355469 1.44207031 -0.01195312 0.73179687 0 0 Z " fill="#958F91" transform="translate(670,399)"/>
<path d="M0 0 C0.33 0.66 0.66 1.32 1 2 C0.360625 2.28875 -0.27875 2.5775 -0.9375 2.875 C-3.15206079 3.82823451 -3.15206079 3.82823451 -4 6 C-12.77578475 6.76681614 -12.77578475 6.76681614 -15.77734375 4.88671875 C-17.125 3.5 -17.125 3.5 -19 1 C-17.7625 1.495 -17.7625 1.495 -16.5 2 C-11.31812514 3.48053568 -6.98824979 3.9941249 -2 1.5 C-1.34 1.005 -0.68 0.51 0 0 Z " fill="#797979" transform="translate(516,438)"/>
<path d="M0 0 C8.08888889 -0.46666667 8.08888889 -0.46666667 11.5625 1.3125 C13 3 13 3 13 6 C12.43796875 5.69320313 11.8759375 5.38640625 11.296875 5.0703125 C8.93653066 3.97042415 6.79534438 3.39904149 4.25 2.875 C3.45078125 2.70742188 2.6515625 2.53984375 1.828125 2.3671875 C1.22484375 2.24601562 0.6215625 2.12484375 0 2 C0 1.34 0 0.68 0 0 Z " fill="#6D6D6D" transform="translate(898,354)"/>
<path d="M0 0 C0.66 0 1.32 0 2 0 C1.34 1.65 0.68 3.3 0 5 C6.6 5 13.2 5 20 5 C20.33 4.01 20.66 3.02 21 2 C21.33 3.32 21.66 4.64 22 6 C14.41 6 6.82 6 -1 6 C-1 1 -1 1 0 0 Z " fill="#A6A2A4" transform="translate(852,412)"/>
<path d="M0 0 C1.32 0.33 2.64 0.66 4 1 C4 1.99 4 2.98 4 4 C4.66 4 5.32 4 6 4 C7.85131483 7.92857754 8.22004943 10.98775112 8.125 15.3125 C8.10695313 16.38113281 8.08890625 17.44976562 8.0703125 18.55078125 C8.03550781 19.76314453 8.03550781 19.76314453 8 21 C7.67 21 7.34 21 7 21 C6.52040222 18.77092605 6.0413392 16.54173703 5.5625 14.3125 C5.29566406 13.07113281 5.02882813 11.82976562 4.75390625 10.55078125 C4.14944864 7.70387985 3.56235316 4.85544374 3 2 C2.01 1.67 1.02 1.34 0 1 C0 0.67 0 0.34 0 0 Z " fill="#B7B7B8" transform="translate(595,404)"/>
<path d="M0 0 C2.64 0 5.28 0 8 0 C8.66 1.32 9.32 2.64 10 4 C8.35 4 6.7 4 5 4 C4.67 4.66 4.34 5.32 4 6 C2.62437146 4.71034824 1.29233607 3.37310707 0 2 C0 1.34 0 0.68 0 0 Z " fill="#2E2E2E" transform="translate(368,401)"/>
<path d="M0 0 C3.35400549 0.59892955 5.49855497 1.67106842 8 4 C9.06385244 7.10290294 9.10539912 9.98966716 9.0625 13.25 C9.05347656 14.14203125 9.04445313 15.0340625 9.03515625 15.953125 C9.02355469 16.62859375 9.01195312 17.3040625 9 18 C8.67 18 8.34 18 8 18 C7.85304688 17.00419922 7.85304688 17.00419922 7.703125 15.98828125 C6.79993421 10.65478393 6.02683477 6.90099618 2 3 C1.34 2.67 0.68 2.34 0 2 C0 1.34 0 0.68 0 0 Z " fill="#2B2B2C" transform="translate(910,350)"/>
<path d="M0 0 C1.485 0.99 1.485 0.99 3 2 C6.43307165 2.24270825 6.43307165 2.24270825 10.1875 2.125 C11.45980469 2.10695313 12.73210938 2.08890625 14.04296875 2.0703125 C15.01878906 2.04710937 15.99460937 2.02390625 17 2 C16.67 2.99 16.34 3.98 16 5 C3.98010109 5.5683665 3.98010109 5.5683665 0 2 C0 1.34 0 0.68 0 0 Z " fill="#989898" transform="translate(572,439)"/>
<path d="M0 0 C1.88138672 0.05414063 1.88138672 0.05414063 3.80078125 0.109375 C5.22970703 0.17898438 5.22970703 0.17898438 6.6875 0.25 C6.6875 0.91 6.6875 1.57 6.6875 2.25 C5.96304688 2.21519531 5.23859375 2.18039062 4.4921875 2.14453125 C-3.41023572 1.9232634 -8.09509327 3.22824841 -14.3125 8.25 C-11.60612083 1.36103484 -7.0485894 -0.26349867 0 0 Z " fill="#A3A2A2" transform="translate(509.3125,397.75)"/>
<path d="M0 0 C4.95 0 9.9 0 15 0 C15 0.66 15 1.32 15 2 C15.99 2 16.98 2 18 2 C18 2.66 18 3.32 18 4 C15.36 3.67 12.72 3.34 10 3 C10 2.34 10 1.68 10 1 C6.37 1.33 2.74 1.66 -1 2 C-0.67 1.34 -0.34 0.68 0 0 Z " fill="#9A9A9B" transform="translate(575,398)"/>
<path d="M0 0 C0.66 0 1.32 0 2 0 C2 1.32 2 2.64 2 4 C3.32 4 4.64 4 6 4 C6 3.01 6 2.02 6 1 C6.99 0.67 7.98 0.34 9 0 C9 0.66 9 1.32 9 2 C8.34 2 7.68 2 7 2 C7 2.99 7 3.98 7 5 C7.66 5 8.32 5 9 5 C8.34 6.32 7.68 7.64 7 9 C6.67 8.01 6.34 7.02 6 6 C4.35 5.67 2.7 5.34 1 5 C0.67 3.35 0.34 1.7 0 0 Z " fill="#8D8D8C" transform="translate(434,401)"/>
<path d="M0 0 C1.73602074 3.05938081 2.39557633 5.63288438 2.75 9.125 C2.84796875 9.99382812 2.9459375 10.86265625 3.046875 11.7578125 C3 14 3 14 1 16 C-1.33368594 12.49947109 -1.24221979 11.00385663 -1.1875 6.875 C-1.18105469 5.79992187 -1.17460938 4.72484375 -1.16796875 3.6171875 C-1 1 -1 1 0 0 Z " fill="#5C5B5A" transform="translate(889,356)"/>
<path d="M0 0 C1.98 0 3.96 0 6 0 C6 1.65 6 3.3 6 5 C4.02 5 2.04 5 0 5 C0 3.35 0 1.7 0 0 Z " fill="#DEDEE0" transform="translate(901,357)"/>
<path d="M0 0 C3.15234375 -0.3984375 3.15234375 -0.3984375 6.9375 -0.375 C8.18402344 -0.38273437 9.43054688 -0.39046875 10.71484375 -0.3984375 C14 0 14 0 15.94140625 1.5234375 C16.29074219 2.01070313 16.64007813 2.49796875 17 3 C16.67 3.66 16.34 4.32 16 5 C15.60554688 4.51015625 15.21109375 4.0203125 14.8046875 3.515625 C12.45012382 1.53819923 11.16107558 1.65771807 8.125 1.75 C7.24328125 1.77578125 6.3615625 1.8015625 5.453125 1.828125 C2.89952634 2.00703956 0.47588001 2.33976533 -2 3 C-1.34 2.01 -0.68 1.02 0 0 Z " fill="#828282" transform="translate(445,398)"/>
<path d="M0 0 C3.3 0 6.6 0 10 0 C10 0.33 10 0.66 10 1 C7.03 1 4.06 1 1 1 C1 3.31 1 5.62 1 8 C1.66 8 2.32 8 3 8 C3.33 9.65 3.66 11.3 4 13 C3.34 13 2.68 13 2 13 C-0.92332269 8.61501596 -0.1356502 5.2225328 0 0 Z " fill="#CBC9CA" transform="translate(568,426)"/>
<path d="M0 0 C1.485 0.99 1.485 0.99 3 2 C3 3.32 3 4.64 3 6 C5.64 6.33 8.28 6.66 11 7 C11 7.66 11 8.32 11 9 C8.36 9 5.72 9 3 9 C2.01 6.03 1.02 3.06 0 0 Z " fill="#AFAFAE" transform="translate(322,396)"/>
<path d="M0 0 C1.76923828 0.04060547 1.76923828 0.04060547 3.57421875 0.08203125 C4.47785156 0.11683594 5.38148438 0.15164063 6.3125 0.1875 C6.6425 1.1775 6.9725 2.1675 7.3125 3.1875 C6.8175 3.0225 6.3225 2.8575 5.8125 2.6875 C0.6145554 1.64791108 -4.56572809 1.90705702 -9.6875 3.1875 C-6.99455929 -0.5165087 -4.35133403 -0.12924755 0 0 Z " fill="#828282" transform="translate(426.6875,397.8125)"/>
<path d="M0 0 C0.66 0 1.32 0 2 0 C2.05428973 2.22889496 2.09292338 4.45817471 2.125 6.6875 C2.14820313 7.92886719 2.17140625 9.17023438 2.1953125 10.44921875 C2.01032021 13.81237857 1.45767895 15.9985587 0 19 C-0.99 19 -1.98 19 -3 19 C-1.125 14.125 -1.125 14.125 0 13 C0.07258946 10.81360547 0.08373783 8.62499611 0.0625 6.4375 C0.05347656 5.23996094 0.04445313 4.04242188 0.03515625 2.80859375 C0.02355469 1.88175781 0.01195312 0.95492188 0 0 Z " fill="#C2C3C3" transform="translate(919,356)"/>
<path d="M0 0 C1.32 0 2.64 0 4 0 C4 2.31 4 4.62 4 7 C3.34 7 2.68 7 2 7 C2 5.68 2 4.36 2 3 C0.35 3.66 -1.3 4.32 -3 5 C-1.75 2.5 -1.75 2.5 0 0 Z " fill="#9B999C" transform="translate(372,441)"/>
<path d="M0 0 C5.61 0 11.22 0 17 0 C17.33 0.99 17.66 1.98 18 3 C17.48953125 2.84660156 16.9790625 2.69320313 16.453125 2.53515625 C13.2250662 1.83094597 10.04581999 1.65111796 6.75 1.4375 C5.48671875 1.35371094 4.2234375 1.26992188 2.921875 1.18359375 C1.95765625 1.12300781 0.9934375 1.06242187 0 1 C0 0.67 0 0.34 0 0 Z " fill="#A9A9A9" transform="translate(356,398)"/>
<path d="M0 0 C0.99 0 1.98 0 3 0 C3 1.98 3 3.96 3 6 C2.34 6 1.68 6 1 6 C1 7.98 1 9.96 1 12 C0.67 12 0.34 12 0 12 C0 8.04 0 4.08 0 0 Z " fill="#545357" transform="translate(898,356)"/>
<path d="M0 0 C2.05078125 0.03255208 4.1015625 0.06510417 6.15234375 0.09765625 C6.48234375 0.75765625 6.81234375 1.41765625 7.15234375 2.09765625 C1.09765625 3.07421875 1.09765625 3.07421875 -0.84765625 3.09765625 C-1.50765625 2.43765625 -2.16765625 1.77765625 -2.84765625 1.09765625 C-1.84765625 0.09765625 -1.84765625 0.09765625 0 0 Z " fill="#050505" transform="translate(505.84765625,443.90234375)"/>
<path d="M0 0 C1.06671952 3.20015856 0.94845472 4.88544294 0.5625 8.1875 C0.46066406 9.08855469 0.35882812 9.98960937 0.25390625 10.91796875 C0.17011719 11.60503906 0.08632813 12.29210937 0 13 C-0.66 13 -1.32 13 -2 13 C-2.33 13.66 -2.66 14.32 -3 15 C-2.855625 14.175 -2.71125 13.35 -2.5625 12.5 C-2.14311276 9.8904794 -1.7977811 7.31080971 -1.5 4.6875 C-1 1 -1 1 0 0 Z " fill="#656766" transform="translate(727,414)"/>
<path d="M0 0 C0.66 0.33 1.32 0.66 2 1 C1.38125 1.0825 0.7625 1.165 0.125 1.25 C-2.18346804 1.78810733 -2.18346804 1.78810733 -3 4 C-4 6 -4 6 -6.125 6.75 C-7.053125 6.87375 -7.053125 6.87375 -8 7 C-6.89300099 3.78970286 -5.98396175 2.99031023 -3 1.1875 C-1.515 0.5996875 -1.515 0.5996875 0 0 Z " fill="#545650" transform="translate(760,399)"/>
<path d="M0 0 C1.64666203 0.1135629 3.29236082 0.24117381 4.9375 0.375 C5.85402344 0.44460938 6.77054687 0.51421875 7.71484375 0.5859375 C8.84599609 0.79089844 8.84599609 0.79089844 10 1 C10.33 1.66 10.66 2.32 11 3 C9.14375 2.9690625 9.14375 2.9690625 7.25 2.9375 C4.3359175 2.93233319 1.79046673 3.06984442 -1 4 C-0.67 2.68 -0.34 1.36 0 0 Z " fill="#1B191A" transform="translate(416,401)"/>
<path d="M0 0 C0 0.66 0 1.32 0 2 C-3.3 2.66 -6.6 3.32 -10 4 C-10 3.01 -10 2.02 -10 1 C-6.78548731 -0.60725635 -3.56387464 -0.05748185 0 0 Z " fill="#050505" transform="translate(367,400)"/>
<path d="M0 0 C0 3.51716303 -0.82445585 4.37121748 -3 7 C-3.99 6.67 -4.98 6.34 -6 6 C-3.375 1.125 -3.375 1.125 0 0 Z " fill="#D9D7DA" transform="translate(417,406)"/>
<path d="M0 0 C0.33 0.66 0.66 1.32 1 2 C-2.63 2.33 -6.26 2.66 -10 3 C-8.0130571 -0.97388579 -3.91761109 -0.08705802 0 0 Z " fill="#F3F3F3" transform="translate(907,351)"/>
<path d="M0 0 C0.66 0.33 1.32 0.66 2 1 C0.88121617 2.17262904 -0.24523051 3.33795138 -1.375 4.5 C-2.00148438 5.1496875 -2.62796875 5.799375 -3.2734375 6.46875 C-5 8 -5 8 -7 8 C-5.50902342 4.2047869 -3.24299151 2.38957269 0 0 Z " fill="#1B1A1B" transform="translate(571,401)"/>
<path d="M0 0 C0.53625 0.2475 1.0725 0.495 1.625 0.75 C0.635 1.245 0.635 1.245 -0.375 1.75 C-0.045 2.41 0.285 3.07 0.625 3.75 C-2.375 3.75 -5.375 3.75 -8.375 3.75 C-2.95961538 -0.31153846 -2.95961538 -0.31153846 0 0 Z " fill="#404040" transform="translate(299.375,384.25)"/>
<path d="M0 0 C0.33 0 0.66 0 1 0 C1 2.31 1 4.62 1 7 C1.99 7 2.98 7 4 7 C3.67 8.98 3.34 10.96 3 13 C-0.22430866 8.16353702 -0.09242903 5.73060016 0 0 Z " fill="#22201E" transform="translate(560,425)"/>
<path d="M0 0 C4.0369867 1.79421631 6.64480474 3.20551875 9 7 C7.02 6.34 5.04 5.68 3 5 C3 4.34 3 3.68 3 3 C2.01 2.67 1.02 2.34 0 2 C0 1.34 0 0.68 0 0 Z " fill="#B4B4B4" transform="translate(566,443)"/>
<path d="M0 0 C2.09749995 2.35968744 2.96905704 3.54616994 3.1875 6.75 C3.0946875 7.86375 3.0946875 7.86375 3 9 C4.32 9.33 5.64 9.66 7 10 C5.35 10 3.7 10 2 10 C0.39644899 6.49223216 -0.22036864 3.85645121 0 0 Z " fill="#BEBBBD" transform="translate(664,428)"/>
<path d="M0 0 C1.57432497 3.14864995 0.71895552 5.64487425 0 9 C-0.99 9.66 -1.98 10.32 -3 11 C-2.32829194 7.1936543 -1.27253436 3.64793184 0 0 Z " fill="#959696" transform="translate(735,421)"/>
<path d="M0 0 C0.33 0 0.66 0 1 0 C1.1546875 1.8871875 1.1546875 1.8871875 1.3125 3.8125 C1.64858808 6.60499657 1.80025876 7.74433121 3.5625 10 C4.036875 10.33 4.51125 10.66 5 11 C3.35 10.67 1.7 10.34 0 10 C0 6.7 0 3.4 0 0 Z " fill="#BBBCB9" transform="translate(670,399)"/>
<path d="M0 0 C2.97 0 5.94 0 9 0 C6.64031256 2.09749995 5.45383006 2.96905704 2.25 3.1875 C1.13625 3.0946875 1.13625 3.0946875 0 3 C0 2.01 0 1.02 0 0 Z " fill="#0C0C0C" transform="translate(396,400)"/>
<path d="M0 0 C3.96 1.98 3.96 1.98 8 4 C8 4.33 8 4.66 8 5 C2.25 5.125 2.25 5.125 0 4 C0 2.68 0 1.36 0 0 Z " fill="#A8AAA9" transform="translate(496,443)"/>
<path d="M0 0 C0.66 1.32 1.32 2.64 2 4 C-1.13349732 5.04449911 -1.98968256 4.93423645 -5 4 C-5 3.34 -5 2.68 -5 2 C-3.35 1.34 -1.7 0.68 0 0 Z " fill="#474346" transform="translate(496,405)"/>
<path d="M0 0 C0.33 1.32 0.66 2.64 1 4 C0.34 4 -0.32 4 -1 4 C-1.33 5.32 -1.66 6.64 -2 8 C-2 7.01 -2 6.02 -2 5 C-2.66 5 -3.32 5 -4 5 C-3.67 3.68 -3.34 2.36 -3 1 C-1.515 1.99 -1.515 1.99 0 3 C0 2.01 0 1.02 0 0 Z " fill="#8E8E8E" transform="translate(911,357)"/>
</svg>
